<svg width="150" height="60" viewBox="0 0 150 60" fill="none" xmlns="http://www.w3.org/2000/svg">
<path d="M28.4984 39.3448C28.7032 39.3448 28.815 39.5539 28.8338 39.9723C28.2842 40.3501 27.6387 40.5377 26.9854 40.5095C26.6194 40.5181 26.2552 40.4523 25.9123 40.3155C25.6267 40.1978 25.3662 40.02 25.1464 39.7928C24.942 39.5795 24.7784 39.3259 24.6647 39.0461C24.5516 38.7701 24.4753 38.4786 24.4379 38.1801C24.0761 38.9627 23.4937 39.605 22.7724 40.0168C22.0743 40.3576 21.3132 40.526 20.5457 40.5095C20.1471 40.507 19.7492 40.472 19.3556 40.4047C18.9381 40.3356 18.5353 40.1889 18.1654 39.9711C17.7895 39.75 17.4719 39.4315 17.2417 39.045C16.9794 38.5661 16.8531 38.0163 16.8781 37.4623C16.8577 36.801 17.0288 36.1492 17.3682 35.5954C17.6975 35.0842 18.1276 34.6559 18.6283 34.3404C19.1563 34.005 19.7205 33.7393 20.3085 33.5491C20.9152 33.35 21.4986 33.1809 22.0587 33.042C22.3757 32.9818 22.6696 32.9171 22.9406 32.848C23.1822 32.7879 23.4204 32.7135 23.6543 32.6251C23.7524 32.6082 23.8464 32.5703 23.9306 32.5138C24.0148 32.4573 24.0875 32.3834 24.1443 32.2963C24.2269 32.0373 24.2603 31.7634 24.2425 31.4905C24.2721 30.6847 24.0982 29.8852 23.7389 29.1756C23.5474 28.8629 23.2789 28.6124 22.9628 28.4518C22.6467 28.2912 22.2952 28.2265 21.9469 28.265C21.6721 28.2585 21.398 28.2988 21.135 28.3843C20.9219 28.4567 20.7294 28.5851 20.575 28.7576C20.409 28.9546 20.2764 29.1809 20.1831 29.4264C20.071 29.705 19.9592 30.0334 19.8477 30.4116C19.8227 30.5166 19.7756 30.6142 19.7101 30.6971C19.6446 30.7799 19.5623 30.8458 19.4695 30.8898C19.1473 31.0359 18.8151 31.1556 18.4758 31.2475C18.3385 31.295 18.199 31.3348 18.0578 31.3668C17.9209 31.4023 17.7807 31.4221 17.6399 31.4259C17.4532 31.4259 17.3598 31.2167 17.3598 30.7984C17.3752 30.3158 17.5427 29.8528 17.8352 29.4843C18.1757 29.0243 18.5878 28.6304 19.0536 28.3196C19.5568 27.9766 20.0976 27.7007 20.6638 27.4982C21.1947 27.2981 21.7527 27.1923 22.3157 27.185C22.909 27.1789 23.5012 27.239 24.0827 27.3644C24.5772 27.4679 25.0424 27.6931 25.441 28.022C25.8321 28.3595 26.1309 28.803 26.3062 29.306C26.5248 29.9776 26.6258 30.6863 26.604 31.3969V36.5372C26.5937 37.041 26.617 37.545 26.674 38.0452C26.7042 38.2998 26.7749 38.5471 26.883 38.7763C26.9704 39.0052 27.1218 39.1998 27.3166 39.3336C27.4671 39.4208 27.6354 39.4668 27.8067 39.4674C27.9535 39.4765 28.1006 39.4561 28.2403 39.4072C28.3214 39.3677 28.4093 39.3465 28.4984 39.3448ZM24.2425 33.5212L23.3408 33.6706C22.8532 33.7709 22.3788 33.8905 21.9176 34.0295C21.4841 34.1564 21.0712 34.353 20.693 34.6124C20.3441 34.8531 20.0505 35.1746 19.8341 35.5531C19.6065 35.9798 19.4944 36.4656 19.5102 36.9563C19.4898 37.2694 19.5279 37.5837 19.6222 37.8811C19.7166 38.1784 19.8653 38.4527 20.0598 38.6883C20.2364 38.8834 20.4491 39.0373 20.6843 39.1402C20.9196 39.243 21.1724 39.2926 21.4265 39.2857C21.7918 39.2836 22.1522 39.1969 22.4829 39.0316C22.8278 38.8642 23.135 38.6199 23.3836 38.3149C23.646 37.9912 23.8554 37.6227 24.0032 37.2249C24.166 36.7878 24.2473 36.321 24.2425 35.8506V33.5212Z" fill="white"/>
<path d="M41.7411 37.4924C41.7376 37.698 41.7562 37.9033 41.7965 38.1043C41.8315 38.2686 41.9094 38.4189 42.0211 38.5379C42.1523 38.6693 42.3105 38.7662 42.483 38.821C42.7339 38.903 42.9919 38.9579 43.2531 38.9848C43.4955 39.0249 43.6167 39.1542 43.6167 39.3727C43.6137 39.5139 43.5948 39.6542 43.5603 39.7906C43.3179 39.7906 42.996 39.8055 42.5948 39.8352C42.1935 39.8649 41.8529 39.8999 41.5729 39.94C41.1549 40.0202 40.791 40.1049 40.481 40.1941C40.2552 40.2681 40.0219 40.3134 39.7861 40.329C39.5207 40.329 39.3884 40.1804 39.3891 39.8831V37.6128C39.1278 37.991 38.8666 38.3543 38.6054 38.7028C38.342 39.0533 38.0359 39.3648 37.6953 39.629C37.332 39.9073 36.9306 40.1239 36.5052 40.271C35.9793 40.4424 35.4311 40.5233 34.8814 40.5106C34.2536 40.5123 33.6328 40.3697 33.0612 40.0927C32.4695 39.8038 31.9439 39.3809 31.521 38.8533C31.0472 38.2586 30.6815 37.5748 30.4427 36.8371C30.1602 35.9634 30.023 35.0438 30.0373 34.1198C30.0214 33.1044 30.2226 32.0986 30.6255 31.1785C30.983 30.3638 31.4761 29.6251 32.0811 28.9984C32.6299 28.4323 33.2703 27.9769 33.9713 27.6543C34.5659 27.3664 35.2087 27.2091 35.8615 27.1917C36.4978 27.1825 37.1327 27.2573 37.7517 27.4146C38.3102 27.567 38.8577 27.7618 39.3901 27.9975V22.3534C39.4289 21.9071 39.3255 21.4598 39.0965 21.084C38.7392 20.7689 38.2861 20.6044 37.8228 20.6214C37.7728 20.6206 37.7235 20.609 37.6779 20.5874C37.6323 20.5657 37.5912 20.5344 37.5572 20.4953C37.5233 20.4563 37.4971 20.4102 37.4802 20.3601C37.4633 20.3099 37.4562 20.2567 37.4591 20.2035C37.462 20.0622 37.4809 19.9219 37.5156 19.7855C37.758 19.7855 38.0986 19.7706 38.5375 19.7409C38.9763 19.7112 39.3365 19.6763 39.6179 19.6362C40.0096 19.5855 40.3975 19.5058 40.7788 19.3976C41.0163 19.3177 41.2618 19.2675 41.5102 19.2483C41.7742 19.2483 41.9062 19.3969 41.9062 19.6941C41.9027 20.0839 41.8747 20.473 41.8226 20.8588C41.7614 21.3939 41.7334 21.9326 41.739 22.4716L41.7411 37.4924ZM39.3891 29.9357C38.9454 29.4358 38.4244 29.0211 37.8489 28.7097C37.2558 28.4039 36.6037 28.2512 35.9451 28.2639C35.4528 28.2409 34.9641 28.3624 34.5321 28.6151C34.1 28.8679 33.7413 29.2421 33.4948 29.6972C32.9044 30.8176 32.6182 32.0912 32.6683 33.3753C32.6652 34.1047 32.7452 34.8319 32.9065 35.5408C33.0463 36.1796 33.2828 36.7899 33.6066 37.3475C33.8903 37.8396 34.2729 38.2584 34.7267 38.5735C35.1657 38.8716 35.6766 39.0266 36.1969 39.0193C36.594 39.012 36.9815 38.8883 37.317 38.6616C37.6989 38.4149 38.0435 38.1079 38.3389 37.751C38.6501 37.3769 38.905 36.9535 39.0944 36.496C39.2835 36.0606 39.3836 35.5872 39.388 35.1073L39.3891 29.9357Z" fill="white"/>
<path d="M51.8215 36.8951C52.7173 34.5263 53.3847 32.7059 53.8235 31.4338C54.1318 30.6682 54.3528 29.866 54.4818 29.0442C54.4845 28.9532 54.4698 28.8626 54.4386 28.7779C54.4073 28.6932 54.3601 28.6162 54.3 28.5516C54.037 28.3663 53.7328 28.2582 53.4181 28.2384C53.1757 28.2183 53.0545 28.089 53.0545 27.8505C53.0575 27.7898 53.067 27.7296 53.0827 27.6711C53.1005 27.592 53.1193 27.5217 53.1381 27.4615C53.866 27.521 54.6406 27.5507 55.4619 27.5507C55.891 27.5507 56.2689 27.5459 56.5956 27.5362C56.9223 27.5266 57.2358 27.5017 57.536 27.4615C57.5845 27.5848 57.6127 27.716 57.6196 27.8494C57.6242 27.8971 57.6177 27.9453 57.6006 27.9897C57.5834 28.034 57.5562 28.0732 57.5214 28.1035C57.4559 28.1533 57.3671 28.218 57.2549 28.2975C56.9192 28.5204 56.5925 28.7195 56.2748 28.8949C55.9502 29.0826 55.7011 29.3907 55.5748 29.7609L51.5153 40.4528C51.3799 40.4962 51.2388 40.5165 51.0974 40.513C51.0065 40.519 50.916 40.495 50.8384 40.4441C50.7608 40.3932 50.6998 40.318 50.6638 40.2288C50.5795 40.04 50.444 39.7164 50.2573 39.258L46.4215 29.7609C46.3347 29.5192 46.2316 29.2846 46.1133 29.0587C46.0327 28.9066 45.9284 28.7701 45.805 28.6552C45.682 28.5502 45.5396 28.4743 45.3871 28.4323C45.1753 28.3734 44.9603 28.3283 44.7434 28.2975C44.6908 28.2979 44.6387 28.2862 44.5907 28.2631C44.5427 28.24 44.5 28.2062 44.4654 28.1638C44.4309 28.1214 44.4053 28.0716 44.3905 28.0177C44.3758 27.9639 44.3721 27.9072 44.3798 27.8516C44.3868 27.7182 44.4151 27.5871 44.4634 27.4638C44.9301 27.5039 45.3689 27.5288 45.7799 27.5385C46.1909 27.5481 46.6667 27.5529 47.2073 27.5529C47.8042 27.5529 48.3316 27.5481 48.7892 27.5385C49.2469 27.5288 49.7181 27.5039 50.203 27.4638C50.2589 27.5843 50.2876 27.7172 50.2866 27.8516C50.2866 28.0902 50.1653 28.2194 49.9229 28.2395C49.6184 28.2749 49.3209 28.3606 49.041 28.4936C48.9773 28.5292 48.924 28.5829 48.8871 28.6488C48.8503 28.7147 48.8312 28.7903 48.8321 28.867C48.8641 29.1167 48.9205 29.3621 49.0003 29.5993C49.1124 29.9871 49.2897 30.4898 49.5321 31.1072L51.8215 36.8951Z" fill="white"/>
<path d="M63.4123 28.3242C62.9875 28.3201 62.5685 28.4303 62.1941 28.6446C61.8197 28.8589 61.502 29.1703 61.2703 29.5502C60.6749 30.5349 60.3857 31.6947 60.4438 32.8648C60.3522 34.4726 60.7824 36.0651 61.6621 37.3743C62.0448 37.8962 62.5377 38.3143 63.1006 38.5946C63.6635 38.8748 64.2805 39.0093 64.9013 38.9871C65.4151 39.0046 65.9264 38.9027 66.3997 38.6884C66.7591 38.5122 67.108 38.3127 67.4445 38.091C67.501 38.0509 67.5665 38.0063 67.641 37.9572C67.7076 37.9099 67.7856 37.884 67.8656 37.8826C67.9279 37.8926 67.9875 37.9164 68.0406 37.9525C68.0937 37.9886 68.1391 38.0361 68.1739 38.0921C68.2597 38.1927 68.335 38.3029 68.3985 38.4209C68.1881 38.684 67.9536 38.9241 67.6985 39.1375C67.3851 39.3973 67.0472 39.6215 66.6901 39.8063C66.2488 40.0333 65.7837 40.2035 65.3046 40.3134C64.7114 40.4494 64.1058 40.5144 63.499 40.5073C62.7588 40.512 62.0239 40.3753 61.3288 40.1039C60.6573 39.8419 60.0463 39.4296 59.5368 38.8946C59.0017 38.3219 58.5865 37.6347 58.3185 36.8784C58.0039 35.9761 57.8518 35.0187 57.8702 34.0563C57.8599 33.0943 58.0464 32.1415 58.4167 31.2643C58.7553 30.4572 59.2299 29.7232 59.8168 29.0988C60.3685 28.5141 61.0131 28.0387 61.7206 27.6944C62.3644 27.37 63.0661 27.1971 63.778 27.1873C64.412 27.1794 65.0443 27.2595 65.6588 27.4258C66.1606 27.56 66.6415 27.7714 67.0862 28.0533C67.4484 28.2821 67.7591 28.5929 67.9963 28.9639C68.2027 29.2851 68.3147 29.6646 68.3181 30.0539C68.3181 30.1732 68.224 30.2768 68.0381 30.3526C67.8351 30.4376 67.6252 30.5025 67.4111 30.5466C67.1892 30.595 66.9649 30.63 66.7393 30.6513C66.5247 30.6714 66.3986 30.6814 66.361 30.6814C66.2424 30.6817 66.126 30.647 66.0248 30.5811C65.9235 30.5152 65.8413 30.4207 65.7873 30.3081C65.648 30.0591 65.4941 29.7905 65.3255 29.5022C65.1411 29.1941 64.9094 28.9214 64.6401 28.6953C64.2833 28.424 63.8495 28.2929 63.4123 28.3242Z" fill="#02B74B"/>
<path d="M81.6961 39.3448C81.9009 39.3448 82.0127 39.5539 82.0315 39.9723C81.482 40.3501 80.8364 40.5377 80.1831 40.5095C79.8171 40.5181 79.4529 40.4523 79.11 40.3155C78.8244 40.1978 78.564 40.02 78.3441 39.7928C78.1397 39.5795 77.9761 39.3259 77.8624 39.0461C77.7494 38.7701 77.6731 38.4786 77.6357 38.1801C77.2738 38.9627 76.6914 39.605 75.9701 40.0168C75.2721 40.3576 74.511 40.526 73.7434 40.5095C73.3448 40.507 72.9469 40.472 72.5533 40.4047C72.1359 40.3356 71.733 40.1889 71.3632 39.9711C70.9873 39.75 70.6696 39.4315 70.4395 39.045C70.1771 38.5661 70.0508 38.0163 70.0759 37.4623C70.0554 36.801 70.2265 36.1492 70.5659 35.5954C70.8953 35.0842 71.3254 34.6559 71.8261 34.3404C72.354 34.005 72.9182 33.7393 73.5063 33.5491C74.113 33.35 74.6964 33.1809 75.2565 33.042C75.5734 32.9818 75.8674 32.9171 76.1383 32.848C76.3799 32.7879 76.6182 32.7135 76.852 32.6251C76.9502 32.6082 77.0442 32.5703 77.1283 32.5138C77.2125 32.4573 77.2852 32.3834 77.3421 32.2963C77.4246 32.0373 77.458 31.7634 77.4403 31.4905C77.4699 30.6847 77.2959 29.8852 76.9366 29.1756C76.7452 28.8629 76.4767 28.6124 76.1606 28.4518C75.8444 28.2912 75.4929 28.2265 75.1446 28.265C74.8698 28.2585 74.5958 28.2988 74.3328 28.3843C74.1197 28.4567 73.9271 28.5851 73.7727 28.7576C73.6067 28.9546 73.4742 29.1809 73.3809 29.4264C73.2687 29.705 73.1569 30.0334 73.0455 30.4116C73.0204 30.5166 72.9733 30.6142 72.9078 30.6971C72.8423 30.7799 72.76 30.8458 72.6672 30.8898C72.345 31.0359 72.0128 31.1556 71.6735 31.2475C71.5362 31.295 71.3967 31.3348 71.2556 31.3668C71.1186 31.4023 70.9785 31.4221 70.8376 31.4259C70.6509 31.4259 70.5576 31.2167 70.5576 30.7984C70.573 30.3158 70.7405 29.8528 71.033 29.4843C71.3734 29.0243 71.7855 28.6304 72.2513 28.3196C72.7546 27.9766 73.2953 27.7007 73.8615 27.4982C74.3924 27.2981 74.9505 27.1923 75.5135 27.185C76.1067 27.1789 76.6989 27.239 77.2804 27.3644C77.775 27.4679 78.2401 27.6931 78.6388 28.022C79.0299 28.3595 79.3287 28.803 79.5039 29.306C79.7226 29.9776 79.8235 30.6863 79.8017 31.3969V36.5372C79.7914 37.041 79.8148 37.545 79.8717 38.0452C79.9019 38.2998 79.9726 38.5471 80.0807 38.7763C80.1681 39.0052 80.3196 39.1998 80.5144 39.3336C80.6648 39.4208 80.8332 39.4668 81.0044 39.4674C81.1512 39.4765 81.2983 39.4561 81.438 39.4072C81.5191 39.3677 81.607 39.3465 81.6961 39.3448ZM77.4403 33.5212L76.5385 33.6706C76.0509 33.7709 75.5765 33.8905 75.1154 34.0295C74.6818 34.1564 74.2689 34.353 73.8908 34.6124C73.5418 34.8531 73.2483 35.1746 73.0319 35.5531C72.8042 35.9798 72.6921 36.4656 72.708 36.9563C72.6876 37.2694 72.7256 37.5837 72.82 37.8811C72.9143 38.1784 73.0631 38.4527 73.2576 38.6883C73.4341 38.8834 73.6468 39.0373 73.8821 39.1402C74.1174 39.243 74.3701 39.2926 74.6243 39.2857C74.9895 39.2836 75.35 39.1969 75.6807 39.0316C76.0256 38.8642 76.3327 38.6199 76.5814 38.3149C76.8437 37.9912 77.0532 37.6227 77.201 37.2249C77.3638 36.7878 77.4451 36.321 77.4403 35.8506V33.5212Z" fill="#02B74B"/>
<path d="M90.8243 30.8619C90.7082 30.8739 90.5924 30.8362 90.5024 30.7572C90.4416 30.6969 90.3978 30.6197 90.376 30.5343C90.3444 30.192 90.2474 29.8604 90.0909 29.5598C89.9343 29.2592 89.7216 28.996 89.4659 28.7866C88.9379 28.4225 88.3179 28.2401 87.6896 28.2639C87.1714 28.256 86.6651 28.429 86.2476 28.7565C86.0456 28.9097 85.8825 29.1141 85.7731 29.3513C85.6636 29.5885 85.6113 29.851 85.6207 30.1152C85.6177 30.3641 85.6679 30.6105 85.7674 30.8357C85.867 31.0609 86.0134 31.2589 86.1954 31.4147C86.8269 31.892 87.5353 32.2414 88.2852 32.4457C88.7955 32.6124 89.2958 32.8119 89.7836 33.0431C90.2106 33.242 90.607 33.5088 90.9591 33.8344C91.2894 34.149 91.5521 34.536 91.7291 34.969C91.9262 35.4751 92.0215 36.0195 92.0092 36.5673C92.0101 37.0787 91.9197 37.5856 91.7427 38.0608C91.5649 38.5391 91.2872 38.9679 90.9308 39.3147C90.5309 39.6961 90.0648 39.9903 89.5589 40.1807C88.9244 40.4143 88.2561 40.5257 87.5851 40.5095C86.9127 40.5018 86.2425 40.4271 85.5831 40.2866C84.8813 40.151 84.205 39.8939 83.5811 39.5254C83.5434 39.0052 83.5107 38.4624 83.4828 37.897C83.455 37.3315 83.441 36.759 83.441 36.1795H83.7211C83.885 36.1746 84.0478 36.2105 84.1965 36.2842C84.2586 36.3157 84.3119 36.3639 84.3512 36.4241C84.3904 36.4843 84.4142 36.5545 84.4201 36.6275C84.466 37.4003 84.7925 38.1236 85.3302 38.6437C85.9566 39.1856 86.7508 39.4573 87.5558 39.405C88.1871 39.448 88.8121 39.2505 89.3196 38.8477C89.5233 38.6632 89.6847 38.4313 89.7914 38.1699C89.8981 37.9085 89.9472 37.6245 89.935 37.3397C89.9495 37.0486 89.8957 36.7582 89.7784 36.4949C89.661 36.2315 89.484 36.0036 89.2632 35.8317C88.6538 35.405 87.9832 35.0873 87.2779 34.891C86.3327 34.6196 85.4506 34.1418 84.6876 33.4878C84.3636 33.1659 84.1111 32.7709 83.9484 32.3317C83.7857 31.8924 83.717 31.42 83.7472 30.9489C83.7427 30.4524 83.8338 29.9602 84.0148 29.5028C84.1957 29.0454 84.4628 28.6324 84.7994 28.2895C85.1566 27.9374 85.5751 27.6636 86.0313 27.4837C86.5507 27.2782 87.1012 27.177 87.6551 27.185C88.3702 27.1802 89.0821 27.2857 89.7689 27.4982C90.3104 27.653 90.8321 27.8776 91.3227 28.1669C91.3415 28.3267 91.3603 28.521 91.3791 28.7499C91.3979 28.9787 91.4118 29.2176 91.4209 29.4665C91.4299 29.7162 91.4394 29.9651 91.4491 30.2133C91.4589 30.4614 91.4634 30.6843 91.4627 30.882L90.8243 30.8619Z" fill="#02B74B"/>
<path d="M98.3557 30.1453C98.5268 29.9791 98.686 29.7995 98.8322 29.6081C99.5297 28.7874 100.365 28.1137 101.296 27.6219C101.853 27.3298 102.466 27.1816 103.087 27.1895C103.524 27.1879 103.959 27.2586 104.375 27.399C104.78 27.5351 105.149 27.7702 105.453 28.0856C105.778 28.4338 106.031 28.8517 106.194 29.3116C106.396 29.9044 106.491 30.5325 106.475 31.1629V38.4509C106.481 38.6049 106.534 38.7527 106.624 38.8729C106.715 38.993 106.839 39.0795 106.978 39.1197C107.348 39.2793 107.734 39.3944 108.128 39.463C108.2 39.4823 108.263 39.5298 108.305 39.5961C108.346 39.6625 108.363 39.7429 108.352 39.8218C108.347 39.9827 108.329 40.1427 108.297 40.3C107.809 40.2599 107.337 40.2249 106.881 40.1952C106.425 40.1655 105.912 40.1506 105.343 40.1506C104.855 40.1506 104.362 40.1655 103.862 40.1952C103.363 40.2249 102.872 40.2599 102.389 40.3C102.356 40.1428 102.338 39.9827 102.334 39.8218C102.324 39.739 102.345 39.6556 102.392 39.5888C102.439 39.522 102.508 39.477 102.585 39.463C102.763 39.4415 102.938 39.4015 103.108 39.3437C103.276 39.2873 103.44 39.2173 103.598 39.1341C103.737 39.0617 103.865 38.9657 103.976 38.8499C104.026 38.7971 104.065 38.7342 104.091 38.6649C104.118 38.5956 104.131 38.5213 104.13 38.4465V32.5929C104.132 32.1332 104.104 31.674 104.045 31.2186C104.001 30.8377 103.893 30.4685 103.725 30.1286C103.577 29.8313 103.355 29.5833 103.084 29.4119C102.763 29.2294 102.402 29.1417 102.039 29.1578C101.574 29.1583 101.112 29.2443 100.674 29.4119C100.237 29.5757 99.8348 29.8294 99.4894 30.1587C99.1398 30.4965 98.8601 30.9084 98.6681 31.368C98.4564 31.8857 98.352 32.4461 98.362 33.0108V38.4465C98.3659 38.5971 98.414 38.7425 98.4995 38.8625C98.585 38.9824 98.7035 39.0708 98.8384 39.1152C99.1796 39.2724 99.5365 39.3876 99.9021 39.4585C99.9792 39.4725 100.048 39.5175 100.095 39.5843C100.142 39.6511 100.163 39.7345 100.154 39.8174C100.149 39.9782 100.131 40.1383 100.099 40.2955C99.611 40.2554 99.1341 40.2205 98.6681 40.1908C98.2021 40.161 97.7037 40.1462 97.1729 40.1462C96.624 40.1462 96.1064 40.161 95.6202 40.1908C95.1339 40.2205 94.6575 40.2554 94.1907 40.2955C94.1578 40.1384 94.1389 39.9783 94.1343 39.8174C94.123 39.7384 94.1398 39.6579 94.1814 39.5914C94.2229 39.525 94.2863 39.4776 94.359 39.4585C94.7529 39.3899 95.1384 39.2748 95.5084 39.1152C95.6519 39.0713 95.7784 38.9793 95.8693 38.8529C95.9602 38.7265 96.0105 38.5723 96.013 38.413V22.3501C96.0388 22.123 96.0224 21.8927 95.9647 21.6724C95.9069 21.4521 95.8091 21.246 95.6766 21.0661C95.2775 20.7836 94.8108 20.6289 94.3318 20.6203C94.2819 20.6195 94.2326 20.6079 94.1869 20.5862C94.1413 20.5646 94.1003 20.5333 94.0663 20.4942C94.0323 20.4551 94.0061 20.4091 93.9892 20.359C93.9724 20.3088 93.9652 20.2555 93.9682 20.2024C93.971 20.0611 93.99 19.9208 94.0246 19.7844C94.267 19.7844 94.6031 19.7695 95.0329 19.7398C95.4627 19.7101 95.8549 19.6752 96.2095 19.635C96.6015 19.5843 96.9897 19.5046 97.3714 19.3965C97.6089 19.3165 97.8544 19.2664 98.1028 19.2472C98.1643 19.2389 98.2268 19.2453 98.2858 19.2659C98.3447 19.2865 98.3985 19.3209 98.4435 19.3664C98.5048 19.4632 98.5345 19.5787 98.5281 19.6952C98.5243 20.0898 98.4964 20.4837 98.4445 20.8744C98.3843 21.3946 98.3561 21.9185 98.3599 22.4426L98.3557 30.1453Z" fill="#02B74B"/>
<path d="M121.991 41.7534C128.14 41.7534 133.125 36.436 133.125 29.8767C133.125 23.3174 128.14 18 121.991 18C115.841 18 110.856 23.3174 110.856 29.8767C110.856 36.436 115.841 41.7534 121.991 41.7534Z" fill="#02B74B"/>
<path d="M118.852 29.8108L118.252 31.477H121.109L121.708 29.8108H118.852Z" fill="white"/>
<path d="M120.843 24.276L119.434 28.1914H122.291L120.843 24.276Z" fill="white"/>
<path d="M117.671 33.0966L116.108 37.4422H118.964L120.526 33.0966H117.671Z" fill="white"/>
<path d="M122.89 29.8108L123.507 31.477H126.373L125.756 29.8108H122.89Z" fill="white"/>
<path d="M125.157 28.1913L123.705 24.2614L122.291 28.1913H125.157Z" fill="white"/>
<path d="M125.71 37.4422H128.578L126.971 33.0966H124.104L125.71 37.4422Z" fill="white"/>
<path d="M123.705 24.2615L122.258 20.3472L122.256 20.3483L120.843 24.276L122.292 28.1914L123.705 24.2615Z" fill="white"/>
<path d="M129.485 29.8109L130.461 28.1914H125.158L125.756 29.8109H129.485Z" fill="#08072B"/>
<path d="M119.434 28.1914H114.114L115.111 29.8109H118.852L119.434 28.1914Z" fill="#08072B"/>
<path d="M121.708 29.8109H122.889L122.291 28.1914L121.708 29.8109Z" fill="#08072B"/>
<path d="M121.708 29.8109L122.291 28.1914H119.434L118.852 29.8109H121.708Z" fill="#08072B"/>
<path d="M122.89 29.8109H125.756L125.157 28.1914H122.291L122.89 29.8109Z" fill="white"/>
<path d="M127.507 33.0965L128.483 31.4771H126.373L126.972 33.0965H127.507Z" fill="#08072B"/>
<path d="M116.136 31.4771L117.133 33.0965H117.67L118.252 31.4771H116.136Z" fill="#08072B"/>
<path d="M120.526 33.0965H124.105L123.506 31.4771H121.109L120.526 33.0965Z" fill="#08072B"/>
<path d="M121.11 31.4771H118.253L117.671 33.0965H120.527L121.11 31.4771Z" fill="#08072B"/>
<path d="M124.105 33.0965H126.971L126.373 31.4771H123.507L124.105 33.0965Z" fill="white"/>
</svg>
