<svg width="150" height="60" viewBox="0 0 150 60" fill="none" xmlns="http://www.w3.org/2000/svg">
<path d="M47.0204 16.6413C45.9928 17.8572 44.3487 18.8164 42.7045 18.6794C42.499 17.0353 43.304 15.2883 44.2459 14.2093C45.2735 12.9592 47.0718 12.0685 48.5275 12C48.6988 13.7126 48.0309 15.3911 47.0204 16.6413ZM48.5104 19.0047C46.1298 18.8677 44.0918 20.3577 42.9614 20.3577C41.8139 20.3577 40.0842 19.0732 38.2002 19.1076C35.7511 19.1417 33.4733 20.529 32.2231 22.7384C29.6541 27.157 31.5551 33.6994 34.0385 37.296C35.2545 39.0771 36.7102 41.0294 38.6284 40.9609C40.4438 40.8924 41.1631 39.7793 43.3553 39.7793C45.5647 39.7793 46.1983 40.9609 48.1165 40.9268C50.1032 40.8924 51.3535 39.1456 52.5695 37.3645C53.9566 35.3435 54.5218 33.3739 54.5561 33.2712C54.5218 33.2369 50.7197 31.7812 50.6855 27.3968C50.6512 23.7317 53.6826 21.9849 53.8196 21.882C52.107 19.3472 49.4352 19.0732 48.5104 19.0047ZM62.263 14.0381V40.7384H66.4076V31.6099H72.1451C77.3858 31.6099 81.0679 28.0133 81.0679 22.8068C81.0679 17.6004 77.4543 14.0381 72.282 14.0381H62.263ZM66.4076 17.5319H71.1859C74.7825 17.5319 76.8378 19.4501 76.8378 22.824C76.8378 26.198 74.7825 28.1333 71.1689 28.1333H66.4076V17.5319ZM88.638 40.9439C91.2411 40.9439 93.6561 39.6251 94.7521 37.5356H94.8377V40.7384H98.674V27.4481C98.674 23.5947 95.5914 21.1114 90.8473 21.1114C86.4457 21.1114 83.1917 23.629 83.0717 27.0885H86.8053C87.1137 25.4443 88.638 24.3653 90.7273 24.3653C93.2621 24.3653 94.6836 25.5472 94.6836 27.7221V29.1951L89.5113 29.5033C84.6989 29.7944 82.0956 31.7641 82.0956 35.1893C82.0956 38.649 84.7844 40.9439 88.638 40.9439ZM89.7511 37.7755C87.5418 37.7755 86.1375 36.7137 86.1375 35.0865C86.1375 33.4082 87.4905 32.4321 90.0766 32.2779L94.6836 31.9867V33.4939C94.6836 35.9943 92.5599 37.7755 89.7511 37.7755ZM103.795 48C107.837 48 109.738 46.4587 111.399 41.7831L118.678 21.3682H114.465L109.584 37.1418H109.498L104.617 21.3682H100.284L107.306 40.8069L106.929 41.9886C106.295 43.9924 105.268 44.763 103.435 44.763C103.11 44.763 102.476 44.7289 102.219 44.6945V47.8973C102.459 47.9658 103.487 48 103.795 48Z" fill="white"/>
</svg>
