<svg width="32" height="32" viewBox="0 0 32 32" fill="none" xmlns="http://www.w3.org/2000/svg">
<g clip-path="url(#clip0_13015_162239)">
<path d="M30.9284 5.45239H30.9998V5.52382L30.9284 5.45239Z" fill="#80858F"/>
<path d="M31.9999 4.88103C31.5714 4.95246 31.1428 4.95246 31.0714 4.95246H30.9999H30.9285C27.9285 5.02389 20.2142 5.23818 15.9999 5.23818C11.7142 5.23818 3.92851 5.02389 0.999939 4.95246C0.92851 4.95246 0.499939 4.88103 -6.10352e-05 4.88103L0.785653 2.66675H1.1428C7.07137 2.88103 12.3571 3.02389 15.9999 3.02389C21.5714 3.02389 29.2142 2.73818 30.8571 2.66675H31.2142L31.9999 4.88103Z" fill="#80858F"/>
<path d="M29.4286 14.5952H2.57144L2.92858 11.4524H29L29.4286 14.5952Z" fill="#80858F"/>
<path d="M10.2858 8.66675L10.2144 10.4525H6.5715L6.85722 8.66675H10.2858Z" fill="#80858F"/>
<path d="M30.9998 5.52382L30.9284 5.45239H30.9998V5.52382Z" fill="#80858F"/>
<path d="M30.9998 6.02393V7.66678H0.928375V6.02393C1.07123 6.02393 1.28552 6.02393 1.42838 6.02393C4.71409 6.09535 11.9284 6.30964 15.9284 6.30964C19.9284 6.30964 27.1427 6.09535 30.4284 6.02393C30.7141 6.02393 30.8569 6.02393 30.9998 6.02393Z" fill="#80858F"/>
<path d="M25.357 10.4525H21.7855L21.6427 8.66675H25.0712L25.357 10.4525Z" fill="#80858F"/>
<path d="M10.4285 15.6667L9.57135 28.9525H3.9285L5.85707 15.6667H10.4285Z" fill="#80858F"/>
<path d="M28.0715 28.9525H22.3572L21.5715 15.6667H26.0715L28.0715 28.9525Z" fill="#80858F"/>
<path d="M13.2855 8.66675V10.4525H11.2855L11.357 8.66675H13.2855Z" fill="#80858F"/>
<path d="M17.5714 8.66675H14.3571V10.381H17.5714V8.66675Z" fill="#80858F"/>
<path d="M20.7143 10.4525H18.6429V8.66675H20.5714L20.7143 10.4525Z" fill="#80858F"/>
</g>
<defs>
<clipPath id="clip0_13015_162239">
<rect width="32" height="32" fill="white"/>
</clipPath>
</defs>
</svg>
