<svg width="150" height="60" viewBox="0 0 150 60" fill="none" xmlns="http://www.w3.org/2000/svg">
<path d="M51.6175 33.6321C50.9326 36.5103 49.4493 39.1109 47.3552 41.105C45.2611 43.0992 42.6502 44.3974 39.8526 44.8355C37.055 45.2736 34.1964 44.8319 31.6381 43.5663C29.0799 42.3007 26.9369 40.268 25.4801 37.7253C24.0233 35.1825 23.3182 32.2438 23.4538 29.2807C23.5895 26.3177 24.5598 23.4633 26.2421 21.0786C27.9245 18.6938 30.2433 16.8858 32.9054 15.883C35.5674 14.8802 38.4533 14.7278 41.198 15.4449C43.0209 15.9214 44.7365 16.7699 46.2468 17.9418C47.757 19.1137 49.0323 20.5862 49.9999 22.2751C50.9675 23.9639 51.6083 25.8362 51.8859 27.7848C52.1634 29.7335 52.0722 31.7204 51.6175 33.6321Z" fill="#F7931A"/>
<path d="M44.0445 27.864C44.3287 25.8674 42.8802 24.7939 40.8978 24.0778L41.5407 21.3738L39.9708 20.9629L39.3445 23.596C38.9306 23.4875 38.5085 23.3863 38.0864 23.285L38.7168 20.6345L37.1483 20.2236L36.5041 22.9276C36.1619 22.8466 35.8267 22.7656 35.5025 22.6802V22.6715L33.3381 22.1044L32.9242 23.8623C32.9242 23.8623 34.0885 24.1429 34.0637 24.1588C34.281 24.1861 34.4795 24.3017 34.6165 24.4808C34.7535 24.6599 34.818 24.8881 34.7962 25.1166L34.0637 28.1982C34.119 28.2128 34.1734 28.2312 34.2265 28.2531L34.0609 28.2097L33.0346 32.5269C33.012 32.6023 32.9754 32.6723 32.9269 32.7328C32.8784 32.7933 32.819 32.8431 32.7521 32.8794C32.6851 32.9157 32.612 32.9378 32.5369 32.9443C32.4618 32.9509 32.3862 32.9417 32.3145 32.9175C32.3296 32.9406 31.1736 32.618 31.1736 32.618L30.3942 34.4988L32.4372 35.0327C32.8166 35.1325 33.1891 35.2367 33.556 35.3365L32.9063 38.0723L34.4748 38.4832L35.119 35.7763C35.5481 35.8978 35.9633 36.0107 36.3702 36.1163L35.7288 38.8101L37.2987 39.221L37.9484 36.491C40.6247 37.0219 42.6388 36.8078 43.4858 34.2688C43.6585 33.9103 43.7582 33.5181 43.7785 33.117C43.7987 32.716 43.7392 32.3149 43.6036 31.9393C43.468 31.5637 43.2593 31.2218 42.9908 30.9354C42.7224 30.649 42.4 30.4243 42.0442 30.2757C42.5859 30.1612 43.0762 29.8619 43.4387 29.4247C43.8013 28.9874 44.0157 28.4366 44.0487 27.8582L44.0445 27.864ZM40.4578 33.1388C39.9722 35.1831 36.6903 34.0778 35.6294 33.8015L36.4916 30.1773C37.5525 30.4566 40.9654 31.0063 40.4578 33.1388ZM40.9434 27.8336C40.5005 29.6941 37.7705 28.7479 36.8821 28.5165L37.6642 25.2294C38.5513 25.4624 41.4041 25.8949 40.9434 27.8336Z" fill="white"/>
<path d="M67.3698 26.3249C68.0114 26.3086 68.6482 26.4456 69.2319 26.7255C69.7383 26.9794 70.184 27.3494 70.5359 27.8081C70.8878 28.2835 71.1466 28.8271 71.2973 29.4078C71.4647 30.0517 71.5473 30.7166 71.5426 31.384C71.5485 33.4658 70.7849 35.469 69.4122 36.9728C68.7469 37.6906 67.9544 38.2653 67.0792 38.6648C66.1608 39.0866 65.1678 39.3004 64.1652 39.2922C64.0301 39.2922 63.7926 39.2922 63.4567 39.2805C63.0706 39.2682 62.6855 39.2332 62.3031 39.1757C61.8387 39.106 61.378 39.0112 60.923 38.8916C60.4467 38.7711 59.9841 38.5977 59.5428 38.3744L63.4234 21.272L66.8998 20.7074L65.5102 26.7766C65.7992 26.6394 66.0992 26.5294 66.4067 26.4476C66.7221 26.3667 67.0459 26.3267 67.3706 26.3284L67.3698 26.3249ZM64.454 36.3965C64.9718 36.3971 65.4812 36.2592 65.9341 35.9959C66.4 35.7288 66.8088 35.3646 67.1356 34.9258C67.477 34.4679 67.7456 33.9553 67.9312 33.4076C68.1259 32.8414 68.2248 32.244 68.2235 31.6421C68.254 31.0313 68.1302 30.4229 67.8646 29.8783C67.7198 29.6562 67.5201 29.4797 67.2869 29.3678C67.0537 29.2558 66.7957 29.2126 66.5408 29.2429C66.2652 29.2535 65.9913 29.2929 65.723 29.3603C65.3846 29.4416 65.0717 29.6122 64.8138 29.8559L63.3328 36.3006C63.4183 36.3176 63.5037 36.3329 63.5687 36.3481C63.6383 36.3641 63.7088 36.3758 63.7798 36.383C63.8698 36.3928 63.9602 36.3973 64.0507 36.3965H64.454Z" fill="white"/>
<path d="M75.1478 38.9593H71.8279L74.6317 26.5862H77.9747L75.1478 38.9593ZM76.7638 25.0788C76.3109 25.0827 75.8694 24.9299 75.5076 24.6441C75.3166 24.4883 75.1654 24.2853 75.0674 24.0532C74.9694 23.8211 74.9278 23.5672 74.9462 23.3142C74.9446 22.9939 75.0093 22.6771 75.1359 22.3857C75.2583 22.1036 75.4298 21.8479 75.6418 21.632C75.854 21.4193 76.1005 21.2479 76.3699 21.1256C76.6502 21 76.9521 20.9363 77.2569 20.9383C77.7095 20.9347 78.1507 21.0875 78.5123 21.373C78.7021 21.5298 78.8525 21.733 78.9502 21.9649C79.048 22.1967 79.0901 22.4501 79.0729 22.7029C79.0748 23.0239 79.0098 23.3414 78.8823 23.6332C78.761 23.9153 78.59 24.1707 78.3781 24.386C78.1662 24.5987 77.9196 24.7696 77.65 24.8906C77.3705 25.0169 77.069 25.0807 76.7647 25.0779L76.7638 25.0788Z" fill="white"/>
<path d="M80.8834 23.5035L84.3606 22.938L83.506 26.5856H87.2302L86.5577 29.4535H82.8566L81.8704 33.7813C81.7844 34.1115 81.7317 34.4504 81.7132 34.7922C81.6917 35.0682 81.7297 35.3456 81.8242 35.6042C81.9173 35.8365 82.089 36.0245 82.3062 36.132C82.6204 36.2758 82.9621 36.3408 83.3044 36.322C83.6549 36.3227 84.0047 36.287 84.3486 36.2154C84.6947 36.1431 85.0354 36.0449 85.3681 35.9214L85.6159 38.6047C85.1395 38.7863 84.6526 38.936 84.1581 39.0528C83.5459 39.1877 82.9214 39.2506 82.296 39.2401C81.4707 39.284 80.6474 39.1193 79.8955 38.7597C79.3618 38.4752 78.9349 38.0105 78.6837 37.4405C78.4375 36.8364 78.3301 36.18 78.3701 35.5244C78.4069 34.7552 78.5118 33.9914 78.6837 33.2426L80.8834 23.5035Z" fill="white"/>
<path d="M87.0851 34.0196C87.0787 32.9932 87.2456 31.9737 87.5782 31.0084C87.8908 30.0953 88.3713 29.2555 88.9925 28.5366C89.6176 27.8228 90.3782 27.2541 91.2255 26.867C92.1488 26.4489 93.1459 26.2403 94.1515 26.2549C94.7585 26.2472 95.3643 26.3146 95.9563 26.4556C96.4555 26.578 96.941 26.7552 97.4048 26.9844L96.2597 29.7142C95.9606 29.587 95.6504 29.4749 95.3291 29.3737C94.9459 29.2619 94.5491 29.2099 94.1515 29.2195C93.6542 29.1972 93.1586 29.2936 92.7019 29.5013C92.2452 29.709 91.8395 30.0227 91.5152 30.4187C90.8274 31.3344 90.4802 32.4809 90.5384 33.645C90.5079 34.3302 90.6808 35.0084 91.0332 35.5862C91.2545 35.8567 91.536 36.0657 91.8528 36.1948C92.1695 36.3239 92.5118 36.3692 92.8491 36.3265C93.2715 36.3274 93.6927 36.2802 94.1054 36.1858C94.474 36.103 94.8347 35.9851 95.183 35.8336L95.4308 38.6325C94.9763 38.8151 94.5117 38.9686 94.0395 39.0922C93.4433 39.2334 92.8331 39.2999 92.2219 39.2903C91.418 39.3126 90.6177 39.1688 89.8667 38.8673C89.2634 38.6127 88.7201 38.2234 88.2747 37.7264C87.8537 37.245 87.5427 36.6694 87.3654 36.0433C87.1763 35.3877 87.0813 34.7063 87.0834 34.0214L87.0851 34.0196Z" fill="white"/>
<path d="M101.834 39.2884C101.129 39.3045 100.428 39.1764 99.7692 38.9111C99.215 38.6816 98.7198 38.3191 98.3233 37.8527C97.9335 37.3823 97.6395 36.8334 97.4593 36.2395C97.2584 35.5749 97.1605 34.8807 97.1696 34.1836C97.1717 33.2237 97.3188 32.2703 97.6055 31.3587C97.8859 30.4372 98.3234 29.5766 98.8967 28.8189C99.4672 28.0628 100.176 27.4342 100.982 26.97C101.849 26.4807 102.822 26.2338 103.806 26.253C104.507 26.2396 105.203 26.3677 105.857 26.6303C106.415 26.8589 106.915 27.2214 107.315 27.6887C107.703 28.1596 107.997 28.7085 108.176 29.3019C108.379 29.9681 108.477 30.6641 108.469 31.3632C108.465 32.3222 108.321 33.2749 108.041 34.1881C107.769 35.1057 107.343 35.9656 106.785 36.7279C106.224 37.4881 105.517 38.1169 104.71 38.5741C103.823 39.0667 102.831 39.3135 101.828 39.2911L101.834 39.2884ZM103.493 29.2195C103.025 29.2124 102.567 29.3701 102.194 29.6676C101.813 29.9758 101.493 30.3599 101.254 30.7977C100.994 31.2639 100.801 31.7672 100.679 32.2917C100.557 32.7953 100.493 33.3126 100.49 33.8323C100.459 34.4663 100.582 35.0981 100.848 35.6686C100.985 35.8944 101.179 36.0756 101.409 36.1918C101.639 36.308 101.895 36.3546 102.149 36.3264C102.619 36.3349 103.077 36.177 103.451 35.8783C103.831 35.5703 104.151 35.187 104.391 34.75C104.65 34.2837 104.843 33.7804 104.965 33.256C105.086 32.7522 105.15 32.235 105.155 31.7154C105.186 31.0814 105.062 30.4496 104.795 29.88C104.658 29.6535 104.464 29.4716 104.234 29.355C104.004 29.2385 103.747 29.1918 103.493 29.2204V29.2195Z" fill="white"/>
<path d="M112.09 38.9595H108.768L111.572 26.5864H114.916L112.09 38.9595ZM113.704 25.0781C113.251 25.082 112.81 24.9292 112.448 24.6434C112.258 24.4873 112.107 24.2842 112.009 24.0522C111.911 23.8202 111.869 23.5664 111.887 23.3134C111.885 22.9931 111.95 22.6763 112.077 22.385C112.199 22.1026 112.37 21.8468 112.582 21.6312C112.795 21.4185 113.042 21.247 113.311 21.1249C113.591 20.9992 113.892 20.9354 114.196 20.9376C114.649 20.9336 115.091 21.0864 115.453 21.3722C115.643 21.5288 115.794 21.7319 115.892 21.9638C115.99 22.1957 116.032 22.4492 116.015 22.7022C116.016 23.0232 115.95 23.3405 115.823 23.6325C115.702 23.9146 115.531 24.17 115.32 24.3853C115.107 24.5975 114.861 24.7684 114.592 24.8899C114.311 25.0169 114.009 25.0813 113.704 25.079V25.0781Z" fill="white"/>
<path d="M117.307 27.1501C117.564 27.073 117.842 26.9798 118.147 26.8813C118.452 26.7827 118.797 26.6859 119.181 26.6016C119.603 26.5072 120.029 26.436 120.458 26.3883C120.99 26.3292 121.525 26.3014 122.061 26.305C123.812 26.305 125.02 26.8385 125.685 27.9056C126.35 28.9727 126.466 30.4312 126.034 32.2809L124.507 38.9622H121.165L122.645 32.4199C122.736 32.0112 122.807 31.6133 122.859 31.2306C122.913 30.8956 122.909 30.5531 122.847 30.2196C122.792 29.9402 122.646 29.6899 122.433 29.5125C122.137 29.3102 121.786 29.2157 121.434 29.2437C120.99 29.2457 120.547 29.2937 120.111 29.3871L117.939 38.9595H114.596L117.312 27.1501H117.307Z" fill="white"/>
</svg>
