<svg width="32" height="32" viewBox="0 0 32 32" fill="none" xmlns="http://www.w3.org/2000/svg">
<path d="M2.74169 15.134C3.68851 15.134 4.3744 15.357 4.79748 15.8028C5.22057 16.2486 5.43305 16.925 5.43305 17.828V18.2455C5.43305 18.8481 5.33986 19.345 5.15161 19.7342C4.96523 20.1252 4.66702 20.4143 4.2607 20.6051C4.75648 20.794 5.10502 21.1038 5.31004 21.5345C5.51319 21.9634 5.6157 22.4923 5.6157 23.1158V24.0698C5.6157 24.9728 5.38459 25.6624 4.92236 26.1366C4.46013 26.6107 3.77238 26.8469 2.85911 26.8469H0V15.134H2.74169ZM1.81723 16.8078V19.9042H2.52735C2.86843 19.9042 3.13495 19.8154 3.32879 19.6359C3.52076 19.4583 3.61768 19.1334 3.61768 18.6649V18.0112C3.61768 17.5881 3.54313 17.2801 3.39402 17.0912C3.24492 16.9023 3.01194 16.8059 2.69136 16.8059H1.81536L1.81723 16.8078ZM1.81723 21.578V25.1769H2.85724C3.16477 25.1769 3.39962 25.0937 3.5599 24.9256C3.72019 24.7575 3.79847 24.4571 3.79847 24.0226V23.0024C3.79847 22.4565 3.70715 22.0824 3.52636 21.8803C3.34556 21.68 3.04549 21.5799 2.62613 21.5799H1.81723V21.578Z" fill="#80858F"/>
<path d="M6.55505 17.9452C6.55505 16.9969 6.79176 16.2695 7.26517 15.7613C7.73858 15.2531 8.42074 15 9.31351 15C10.2063 15 10.8884 15.2531 11.3619 15.7613C11.8353 16.2695 12.072 16.9969 12.072 17.9452V24.0378C12.072 24.9861 11.8353 25.7154 11.3619 26.2217C10.8884 26.7298 10.2063 26.983 9.31351 26.983C8.42074 26.983 7.73858 26.7298 7.26517 26.2217C6.79176 25.7135 6.55505 24.9861 6.55505 24.0378V17.9452ZM8.37228 24.1549C8.37228 24.58 8.45802 24.8785 8.62763 25.0504C8.7991 25.2242 9.02649 25.3092 9.31351 25.3092C9.60054 25.3092 9.82793 25.2223 9.9994 25.0504C10.1709 24.8785 10.2547 24.58 10.2547 24.1549V17.8281C10.2547 17.4049 10.169 17.1064 9.9994 16.9326C9.82793 16.7588 9.60054 16.6738 9.31351 16.6738C9.02649 16.6738 8.7991 16.7607 8.62763 16.9326C8.45615 17.1064 8.37228 17.4049 8.37228 17.8281V24.1549Z" fill="#80858F"/>
<path d="M14.8603 18.3645V26.8507H13.2257V15.134H15.5052L17.3709 22.1466V15.134H18.9887V26.8488H17.123L14.8603 18.3626V18.3645Z" fill="#80858F"/>
<path d="M22.0267 15.134V24.1718C22.0267 24.5969 22.1124 24.8916 22.282 25.0597C22.4535 25.2279 22.6809 25.311 22.9679 25.311C23.255 25.311 23.4823 25.2279 23.6538 25.0597C23.8253 24.8916 23.9092 24.5969 23.9092 24.1718V15.134H25.6257V24.0547C25.6257 25.0031 25.3965 25.7323 24.9399 26.2386C24.4832 26.7468 23.8085 26.9999 22.9176 26.9999C22.0267 26.9999 21.352 26.7468 20.8954 26.2386C20.4387 25.7304 20.2095 25.0031 20.2095 24.0547V15.134H22.0267Z" fill="#80858F"/>
<path d="M26.634 17.9452C26.634 16.9969 26.8576 16.2695 27.3031 15.7613C27.7485 15.2531 28.4177 15 29.3086 15C30.1995 15 30.8686 15.2531 31.314 15.7613C31.7595 16.2695 31.9832 16.9969 31.9832 17.9452V18.3136H30.2666V17.8281C30.2666 17.4049 30.1864 17.1064 30.0261 16.9326C29.8658 16.7588 29.6441 16.6738 29.357 16.6738C29.07 16.6738 28.8482 16.7607 28.6879 16.9326C28.5276 17.1064 28.4493 17.4049 28.4493 17.8281C28.4493 18.2305 28.5369 18.5838 28.714 18.8898C28.8892 19.1958 29.111 19.4868 29.3738 19.7607C29.6385 20.0346 29.9218 20.3067 30.2237 20.5806C30.5256 20.8545 30.8108 21.153 31.0736 21.4761C31.3383 21.7991 31.5582 22.1675 31.7334 22.5812C31.9086 22.995 31.9981 23.4786 31.9981 24.0378C31.9981 24.9861 31.7688 25.7154 31.3122 26.2217C30.8555 26.7298 30.1808 26.983 29.2899 26.983C28.399 26.983 27.7243 26.7298 27.2677 26.2217C26.811 25.7135 26.5818 24.9861 26.5818 24.0378V23.318H28.2984V24.1549C28.2984 24.58 28.3841 24.8747 28.5537 25.0428C28.7252 25.211 28.9526 25.2941 29.2396 25.2941C29.5266 25.2941 29.754 25.211 29.9255 25.0428C30.097 24.8747 30.1808 24.58 30.1808 24.1549C30.1808 23.7525 30.0932 23.3992 29.9162 23.0932C29.7391 22.7872 29.5192 22.4962 29.2564 22.2223C28.9917 21.9484 28.7084 21.6763 28.4065 21.4024C28.1045 21.1285 27.8194 20.83 27.5566 20.5069C27.2919 20.1839 27.072 19.8155 26.8968 19.4018C26.7197 18.9899 26.6321 18.5044 26.6321 17.9452H26.634Z" fill="#80858F"/>
<rect y="29" width="32" height="2" fill="#80858F"/>
<path d="M6 15C6 10.0003 1 10.0003 1 10.0003C1 10.0003 6 10.0003 6 5C6 10.0003 11 10.0003 11 10.0003C11 10.0003 6 9.99973 6 15Z" fill="#80858F"/>
<path d="M25 13.9997C25 11 22 11 22 11C22 11 25 11 25 8C25 11 28 11 28 11C28 11 25 11 25 14V13.9997Z" fill="#80858F"/>
<path d="M16 8.99957C16 5 12 5 12 5C12 5 16 5 16 1C16 5 20 5 20 5C20 5 16 5 16 9V8.99957Z" fill="#80858F"/>
</svg>
