<svg width="32" height="32" viewBox="0 0 32 32" fill="none" xmlns="http://www.w3.org/2000/svg">
<g clip-path="url(#clip0_13165_166114)">
<path d="M32 9.375V30.125H22.4644C19.8441 30.125 18.466 31.9018 18.3256 32H13.6744C13.532 31.9004 12.1736 30.125 9.53563 30.125H0V7.5H1.875V28.25H9.54375C12.4739 28.25 14.1049 29.9032 14.5112 30.125H17.4888C17.8949 29.9032 19.5264 28.25 22.4562 28.25H30.125V9.375H32Z" fill="#80858F"/>
<path d="M13.1831 27.1231C12.0444 26.6306 10.8125 26.375 9.54375 26.375H3.75V3.75H5.625V22.625H8.4375C10.9925 22.625 13.0825 24.6256 13.1831 27.1231Z" fill="#80858F"/>
<path d="M22.4563 5.625C20.4704 5.625 18.5577 6.14525 16.8716 7.14006C16.9152 7.56594 16.9375 7.999 16.9375 8.4375V28.2107C17.0631 28.1196 17.2066 28.0187 17.3702 27.9113C20.265 25.9807 22.2595 26.375 28.25 26.375V5.625H22.4563Z" fill="#80858F"/>
<path d="M15.0625 27.3125C15.0625 23.6939 12.0906 20.75 8.4375 20.75H7.5V0C12.1869 0 15.0625 3.78506 15.0625 8.4375V27.3125Z" fill="#80858F"/>
</g>
<defs>
<clipPath id="clip0_13165_166114">
<rect width="32" height="32" fill="white"/>
</clipPath>
</defs>
</svg>
