<svg width="32" height="32" viewBox="0 0 32 32" fill="none" xmlns="http://www.w3.org/2000/svg">
<path d="M9.79216 1.66887C9.99884 1.63986 10.21 1.62485 10.4247 1.62485H18.9418L13.2628 0.103177C11.8561 -0.273755 10.4149 0.412256 9.79216 1.66887Z" fill="#80858F"/>
<path d="M9.2968 6.69774L9.70183 5.34758L10.1069 6.69774H9.2968Z" fill="#80858F"/>
<path d="M21.8475 25.3755L22.2526 26.7257L22.6576 25.3755H21.8475Z" fill="#80858F"/>
<path fill-rule="evenodd" clip-rule="evenodd" d="M7.41858 6.13405C7.41858 4.87925 8.18739 3.80402 9.27965 3.35369C9.63258 3.20818 10.0193 3.12792 10.4247 3.12792H21.5753C23.2355 3.12792 24.5814 4.47381 24.5814 6.13405V25.866C24.5814 27.1208 23.8126 28.196 22.7204 28.6464C22.3674 28.7919 21.9807 28.8721 21.5753 28.8721H10.4247C8.76447 28.8721 7.41858 27.5263 7.41858 25.866V6.13405ZM9.90436 5.01022L10.7819 7.77807H10.4444L10.1744 7.03535H9.16175L8.95925 7.77807H8.62171L9.4993 5.01022H9.90436ZM15.9934 20.0409C15.9934 20.0409 16.6685 19.4144 19.0988 18.0222C21.529 16.63 21.5965 13.4975 20.2464 12.4534C18.4912 11.1308 15.9934 13.0798 15.9934 13.0798C15.9934 13.0798 13.4957 11.1308 11.808 12.4534C10.3903 13.4279 10.4578 16.63 12.8881 18.0222C15.3184 19.4144 15.9934 20.0409 15.9934 20.0409ZM9.70183 10.6132C9.70183 10.6132 9.83684 10.4784 10.4444 10.1408C11.052 9.8032 11.052 8.9932 10.7144 8.79063C10.3094 8.45303 9.70183 8.92568 9.70183 8.92568C9.70183 8.92568 9.09426 8.45303 8.6892 8.79063C8.35169 9.06072 8.35169 9.8032 8.95925 10.1408C9.56682 10.4784 9.70183 10.6132 9.70183 10.6132ZM22.4551 27.063L23.3327 24.2952H22.9951L22.7251 25.0379H21.7125L21.51 24.2952H21.1725L22.05 27.063H22.4551ZM22.2526 21.46C22.2526 21.46 22.3876 21.5948 22.9951 21.9324C23.6027 22.27 23.6027 23.08 23.2652 23.2826C22.8601 23.6202 22.2526 23.1476 22.2526 23.1476C22.2526 23.1476 21.645 23.6202 21.2399 23.2826C20.9024 23.0125 20.9024 22.27 21.51 21.9324C22.1176 21.5948 22.2526 21.46 22.2526 21.46Z" fill="#80858F"/>
<path d="M26.0845 6.13405C26.0845 5.04275 25.6968 4.042 25.0517 3.26199L26.3189 3.60155C27.9226 4.03126 28.8743 5.67963 28.4446 7.2833L26.0845 16.0913V6.13405Z" fill="#80858F"/>
<path d="M22.2078 30.3312C22.0011 30.3602 21.79 30.3752 21.5753 30.3752H13.0585L18.7372 31.8968C20.1439 32.2737 21.585 31.5878 22.2078 30.3312Z" fill="#80858F"/>
<path d="M5.91551 25.866C5.91551 26.9573 6.30315 27.958 6.94824 28.738L5.6811 28.3984C4.07743 27.9687 3.12575 26.3204 3.55545 24.7167L5.91551 15.9088V25.866Z" fill="#80858F"/>
</svg>
