<svg width="32" height="32" viewBox="0 0 32 32" fill="none" xmlns="http://www.w3.org/2000/svg">
<g clip-path="url(#clip0_13034_161565)">
<path d="M5.97284 15.5635L10.7468 9.73487C9.1717 9.56199 7.7701 9.84824 6.56538 10.5921C4.44431 11.9018 3.32228 14.3312 2.80084 15.8505L5.97284 15.5635Z" fill="#80858F"/>
<path d="M16.1513 29.1975C17.6749 28.6718 20.1128 27.5438 21.4146 25.4278C22.1546 24.225 22.4392 22.8263 22.2666 21.2549L16.438 26.0289L16.1513 29.1975Z" fill="#80858F"/>
<path d="M7.65294 22.9026L9.52901 21.0266L6.78758 18.2852L5.56711 20.8168L7.65294 22.9026Z" fill="#80858F"/>
<path d="M13.7164 25.2141L10.975 22.4727L9.09894 24.3487L11.1848 26.4346L13.7164 25.2141Z" fill="#80858F"/>
<path d="M24.9955 0.544918L31.4571 7.00658C32.0319 4.82122 32.1622 2.50872 31.7991 0.202835C29.4932 -0.160176 27.1808 -0.0298331 24.9955 0.544918Z" fill="#80858F"/>
<path d="M22.1038 7.9834C21.5926 7.9834 21.112 8.18246 20.7506 8.54397C20.0044 9.29017 20.0044 10.5043 20.7506 11.2506C21.1121 11.6121 21.5927 11.8111 22.1039 11.8111C22.6151 11.8111 23.0957 11.6121 23.4572 11.2506C24.2034 10.5044 24.2034 9.29024 23.4572 8.54397C23.0957 8.18246 22.615 7.9834 22.1038 7.9834Z" fill="#80858F"/>
<path d="M0.722742 31.2725C0.323465 30.8732 0.323465 30.2259 0.722742 29.8266L5.27127 25.2781C5.67055 24.8788 6.3179 24.8788 6.71718 25.2781C7.11646 25.6774 7.11646 26.3247 6.71718 26.724L2.16865 31.2725C1.76938 31.6718 1.12202 31.6718 0.722742 31.2725Z" fill="#80858F"/>
<path d="M6.5024 31.2772C6.10313 30.8779 6.10313 30.2305 6.5024 29.8312L8.16307 28.1706C8.56235 27.7713 9.2097 27.7713 9.60898 28.1706C10.0083 28.5699 10.0083 29.2172 9.60898 29.6165L7.94831 31.2772C7.54904 31.6764 6.90168 31.6764 6.5024 31.2772Z" fill="#80858F"/>
<path d="M0.727716 25.4839C0.32844 25.0847 0.32844 24.4373 0.727716 24.038L2.37974 22.386C2.77902 21.9867 3.42637 21.9867 3.82565 22.386C4.22493 22.7853 4.22493 23.4326 3.82565 23.8319L2.17362 25.4839C1.77435 25.8832 1.12699 25.8832 0.727716 25.4839Z" fill="#80858F"/>
<path fill-rule="evenodd" clip-rule="evenodd" d="M22.3071 1.5061C20.0505 2.54066 18.0158 4.08772 16.3807 6.08404L8.08286 16.2149L10.9923 19.1244L16.0681 14.0486C16.4586 13.6581 17.0918 13.6581 17.4823 14.0486L17.9537 14.52C18.3442 14.9105 18.3442 15.5437 17.9537 15.9342L12.8779 21.01L15.7868 23.9189L25.9178 15.621C27.914 13.986 29.4611 11.9513 30.4957 9.69469L22.3071 1.5061ZM22.1045 13.8563C23.1619 13.8563 24.1561 13.4445 24.9039 12.6967C25.6516 11.9489 26.0634 10.9548 26.0633 9.89733C26.0633 8.83986 25.6516 7.84565 24.9038 7.09795C24.1561 6.35018 23.1619 5.93836 22.1044 5.93836C21.0469 5.93836 20.0527 6.35018 19.305 7.09795C18.5573 7.84565 18.1455 8.83986 18.1455 9.89733C18.1455 10.9548 18.5573 11.9489 19.305 12.6967C20.0528 13.4445 21.047 13.8563 22.1045 13.8563Z" fill="#80858F"/>
</g>
<defs>
<clipPath id="clip0_13034_161565">
<rect width="32" height="32" fill="white"/>
</clipPath>
</defs>
</svg>
