<svg width="32" height="32" viewBox="0 0 32 32" fill="none" xmlns="http://www.w3.org/2000/svg">
<path d="M12.7368 32L14.0842 20.2105H12.9053L6 20.8842V15.4105L14 16.1684C11.3895 11.9579 10.0421 8.50526 10.0421 6.31579C9.9579 2.77895 12.6526 0 15.9368 0C19.2211 0 21.9158 2.77895 21.9158 6.23158C21.9158 8.42105 20.4842 11.9579 17.9579 16.0842L25.9579 15.3263V20.8L18.9684 20.2105H17.8737L19.2211 32H12.7368ZM15.9368 4.21053C14.5053 4.21053 13.3263 5.47368 13.3263 6.90526C13.3263 8.92632 15.5158 12.1263 15.9368 12.4632C16.4421 12.1263 18.5474 8.92632 18.5474 6.90526C18.5474 5.47368 17.3684 4.21053 15.9368 4.21053Z" fill="#80858F"/>
</svg>
