<svg width="32" height="32" viewBox="0 0 32 32" fill="none" xmlns="http://www.w3.org/2000/svg">
<path d="M8.16626 15.4034L8.16494 9.45532L6.05626 11.5639C0.844695 16.6413 -0.501555 25.0232 2.80951 31.4805C2.96801 31.7988 3.29301 31.9999 3.64857 31.9999H8.04638C4.16351 27.362 4.21476 19.9857 8.16626 15.4034Z" fill="#80858F"/>
<path d="M16.8615 27.8481C12.0543 27.7713 8.16708 23.8376 8.16708 19.0125L8.16702 18.8247C6.06089 23.0048 6.93895 28.4486 10.3167 31.7253C10.4925 31.9011 10.7309 31.9999 10.9795 31.9999H18.0086C18.3878 31.9999 18.7296 31.7715 18.8748 31.4211C19.0199 31.0709 18.9397 30.6676 18.6716 30.3995C17.9246 29.6525 17.3149 28.7877 16.8615 27.8481Z" fill="#80858F"/>
<path d="M30.7187 1.27587C30.4027 0.959808 29.9076 0.910808 29.5358 1.15868L19.7083 7.71024C19.8061 7.80043 19.9029 7.89193 19.9973 7.98637L24.2894 12.2784L30.8358 2.45881C31.0837 2.087 31.0347 1.59187 30.7187 1.27587Z" fill="#80858F"/>
<path d="M18.6714 9.31213C17.6624 8.303 16.4253 7.60481 15.0765 7.26531C16.2205 6.17894 16.9349 4.64425 16.9349 2.94581V0.9375C16.9349 0.41975 16.5142 0 15.9964 0C12.7007 0 10.0391 2.66712 10.0391 5.95731L10.0421 19.0125C10.0421 22.8516 13.1654 25.975 17.0046 25.975H19.6287L21.9507 28.2972C23.0994 29.4459 24.9683 29.4455 26.1167 28.2971L29.8035 24.6099C30.9557 23.4577 30.9539 21.5946 29.8035 20.4443L18.6714 9.31213ZM17.5037 17.4396C15.8794 17.4396 14.5579 16.1181 14.5579 14.4937C14.5579 13.976 14.9776 13.5562 15.4954 13.5562C16.0131 13.5562 16.4329 13.976 16.4329 14.4937C16.4329 15.0842 16.9132 15.5646 17.5037 15.5646C18.7452 15.6101 18.7462 17.3937 17.5037 17.4396Z" fill="#80858F"/>
</svg>
