<svg width="150" height="60" viewBox="0 0 150 60" fill="none" xmlns="http://www.w3.org/2000/svg">
<path d="M68.2451 33.9839C67.3307 34.2289 66.3906 34.3476 65.4478 34.3372C64.744 34.3492 64.0412 34.2741 63.3535 34.1134C60.8875 33.4696 60.3354 31.2004 60.3354 27.9496C60.3354 22.3669 61.9844 21.3461 65.4883 21.3461C66.3621 21.3422 67.2355 21.3854 68.1053 21.4757C68.8414 21.5738 69.0107 21.7426 69.0107 22.1627V22.8066C69.0107 23.4897 68.9113 23.7174 68.3702 23.7174C67.9396 23.7174 66.6992 23.5643 65.8674 23.5643C65.2167 23.5413 64.5668 23.6301 63.9425 23.8273C62.8935 24.3181 62.8383 25.81 62.8383 27.9889C62.8383 30.1678 62.9487 31.7893 64.4872 32.0994C64.9408 32.1662 65.3984 32.1977 65.8564 32.1936C66.1373 32.1824 66.4168 32.1457 66.6919 32.0837V28.5032H65.0209C64.2848 28.5032 64.2553 28.0085 64.2553 27.612V27.345C64.2553 26.9524 64.2921 26.4538 65.0209 26.4538H68.2451C68.8855 26.4538 69.0069 26.8464 69.0069 27.239V32.971C68.996 33.5285 68.7862 33.7758 68.2451 33.9839Z" fill="white"/>
<path d="M78.3523 34.0586H77.3585C77.0457 34.0586 76.8432 33.9054 76.8432 33.3715C76.0772 33.952 75.1657 34.2747 74.2262 34.298C72.5148 34.298 71.6499 33.3322 71.6499 31.4831C71.6499 29.2845 72.9785 28.7035 74.5392 28.5111C75.2836 28.4071 76.0336 28.356 76.7843 28.358C76.8103 27.8973 76.7693 27.4352 76.6629 26.9878C76.5966 26.8436 76.4906 26.7245 76.359 26.6466C76.2273 26.5687 76.0765 26.5357 75.9268 26.5521C75.0577 26.5898 74.1945 26.7214 73.3503 26.9447C73.2452 26.9725 73.1381 26.9909 73.0301 26.9996C72.6363 27.0389 72.386 26.8701 72.386 26.395V25.865C72.386 25.4724 72.478 25.1819 72.8866 25.0798C73.8422 24.8566 74.8161 24.7343 75.7942 24.7147C76.5009 24.7147 77.7228 24.8325 78.3707 25.5863C78.886 26.2105 79.0148 26.7641 79.0148 28.6525V33.2498C79.0663 33.7759 78.9044 34.0586 78.3523 34.0586ZM76.8432 30.0697C76.5414 30.0697 76.2617 30.0305 75.9783 30.0305C74.2962 30.0305 73.814 30.2425 73.814 31.279C73.814 32.017 74.0055 32.547 74.4545 32.547C75.3235 32.515 76.1588 32.1799 76.8321 31.593L76.8432 30.0697Z" fill="white"/>
<path d="M88.7942 34.0586H88.1649C87.5208 34.0586 87.2264 33.9683 87.2264 33.2302V28.3305C87.2666 27.8692 87.2228 27.404 87.0975 26.9604C87.0434 26.861 86.9625 26.7813 86.8653 26.7316C86.7682 26.6819 86.6593 26.6645 86.5528 26.6816C85.7314 26.7363 84.9563 27.1058 84.3702 27.722V33.2184C84.3702 33.7445 84.2266 34.0468 83.6745 34.0468H83.012C82.3679 34.0468 82.0698 33.9565 82.0698 33.2184V25.81C82.0698 25.1897 82.3384 24.9974 82.8501 24.9974H83.6488C84.0168 24.9974 84.142 25.1662 84.2524 25.5863C84.9765 25.0297 85.8443 24.7253 86.7368 24.7147C88.9194 24.7147 89.4642 26.132 89.4642 27.3451V33.2341C89.5267 33.7563 89.3648 34.0586 88.7942 34.0586Z" fill="white"/>
<path d="M98.8382 34.0586H97.8445C97.5248 34.0586 97.3298 33.9054 97.3298 33.3715C96.561 33.9522 95.647 34.2749 94.7057 34.298C93.0012 34.298 92.1289 33.3323 92.1289 31.4831C92.1289 29.2846 93.4576 28.7035 95.0254 28.5111C95.7698 28.4071 96.5198 28.356 97.2707 28.358C97.297 27.8974 97.2557 27.4352 97.1488 26.9879C97.0804 26.8378 96.9698 26.714 96.8329 26.6332C96.696 26.5524 96.5395 26.5186 96.3839 26.5364C95.5148 26.5758 94.6513 26.7073 93.8072 26.929C93.7038 26.959 93.5978 26.9774 93.4907 26.9839C93.1006 27.0232 92.8503 26.8544 92.8503 26.3832V25.8532C92.8503 25.4606 92.9386 25.1662 93.3435 25.068C94.2988 24.8439 95.2729 24.7229 96.2507 24.7068C96.9651 24.7068 98.1763 24.8246 98.7876 25.5745C99.306 26.1987 99.4607 26.7523 99.4607 28.6446V33.238C99.531 33.7759 99.3764 34.0586 98.8382 34.0586ZM97.3298 30.0698C97.0279 30.0698 96.7448 30.0305 96.4645 30.0305C94.7751 30.0305 94.3007 30.2425 94.3007 31.279C94.3007 32.017 94.492 32.5471 94.941 32.5471C95.8045 32.5116 96.6342 32.1767 97.3035 31.593L97.3298 30.0698Z" fill="white"/>
<path d="M109.88 32.4881C109.277 33.7012 108.018 34.3059 106.476 34.3059C105.926 34.3053 105.379 34.2435 104.842 34.1213V37.1679C104.842 37.694 104.695 38.0159 104.146 38.0159H103.512C102.868 38.0159 102.574 37.9217 102.574 37.1679V25.81C102.574 25.1661 102.836 24.9973 103.359 24.9973H104.205C104.668 24.9973 104.739 25.2447 104.846 25.6255C105.664 25.0856 106.597 24.7725 107.558 24.7146C107.903 24.6902 108.248 24.7432 108.572 24.8704C108.896 24.9975 109.191 25.1959 109.438 25.4527C110.233 26.3243 110.432 27.6984 110.432 29.4376C110.388 31.0316 110.248 31.75 109.88 32.4881ZM107.915 27.3451C107.893 27.1682 107.81 27.0065 107.681 26.8917C107.554 26.7769 107.39 26.7173 107.223 26.7248C106.369 26.8496 105.553 27.1843 104.842 27.7023V32.0602C105.374 32.2285 105.927 32.3119 106.483 32.3075C108.043 32.3075 108.062 31.0316 108.062 29.5044C108.067 28.7829 108.017 28.0622 107.915 27.349V27.3451Z" fill="white"/>
<path d="M119.513 34.0586H118.519C118.199 34.0586 118.004 33.9054 118.004 33.3715C117.235 33.9522 116.321 34.2749 115.379 34.298C113.675 34.298 112.803 33.3323 112.803 31.4831C112.803 29.2846 114.132 28.7035 115.693 28.5111C116.439 28.4092 117.192 28.358 117.944 28.358C117.967 27.8974 117.926 27.4359 117.824 26.9879C117.755 26.8385 117.645 26.7152 117.509 26.6344C117.373 26.5537 117.216 26.5195 117.061 26.5364C116.192 26.5738 115.329 26.7053 114.485 26.929C114.379 26.959 114.27 26.9774 114.161 26.9839C113.793 27.0232 113.52 26.8544 113.52 26.3832V25.8532C113.52 25.4606 113.609 25.1662 114.014 25.068C114.97 24.8442 115.944 24.7232 116.922 24.7068C117.629 24.7068 118.85 24.8246 119.458 25.5745C119.973 26.1987 120.134 26.7523 120.134 28.6446V33.238C120.22 33.7759 120.061 34.0586 119.513 34.0586ZM118.004 30.0698C117.702 30.0698 117.419 30.0305 117.139 30.0305C115.449 30.0305 114.974 30.2425 114.974 31.279C114.974 32.017 115.166 32.5471 115.615 32.5471C116.479 32.5116 117.309 32.1767 117.978 31.593L118.004 30.0698Z" fill="white"/>
<path d="M127.801 26.9838H125.877V30.8078C125.839 31.2679 125.877 31.7313 125.987 32.1779C126.013 32.2264 126.053 32.266 126.1 32.2923C126.147 32.3187 126.199 32.3307 126.252 32.3271C126.745 32.3271 127.297 32.0445 127.724 32.0445C127.844 32.0391 127.962 32.0848 128.051 32.1716C128.14 32.2584 128.193 32.3793 128.199 32.5077V33.2419C128.199 33.9289 128.019 34.1331 127.463 34.188C126.95 34.2456 126.435 34.2758 125.921 34.2783C124.04 34.2783 123.627 33.5442 123.627 31.2907V26.9721H123.131C122.796 26.9721 122.708 26.7247 122.708 26.4224V25.6372C122.708 25.1661 122.88 25.0091 123.182 25.0091H123.624V23.4701C123.624 22.8262 123.874 22.6338 124.386 22.6338H125.192C125.377 22.6317 125.555 22.7077 125.688 22.8451C125.821 22.9826 125.898 23.1705 125.902 23.368C125.904 23.402 125.904 23.4361 125.902 23.4701V24.9973H127.643C128.03 24.9973 128.247 25.0601 128.247 25.6058V26.2889C128.232 26.9053 128.126 26.9838 127.801 26.9838Z" fill="white"/>
<path d="M132.506 23.6546H131.861C131.22 23.6546 130.918 23.5565 130.918 22.8027V22.1196C130.918 21.4757 131.188 21.2912 131.699 21.2912H132.535C132.627 21.2891 132.718 21.3065 132.804 21.3423C132.889 21.3782 132.968 21.4318 133.033 21.5001C133.099 21.5684 133.153 21.65 133.188 21.7401C133.225 21.8303 133.244 21.9272 133.245 22.0253C133.247 22.0567 133.247 22.0882 133.245 22.1196V22.8027C133.208 23.3484 133.068 23.6546 132.506 23.6546ZM132.506 34.0585H131.861C131.22 34.0585 130.918 33.9682 130.918 33.2066V25.8296C130.918 25.1858 131.188 24.9973 131.699 24.9973H132.535C132.627 24.9952 132.718 25.0125 132.804 25.048C132.889 25.0836 132.967 25.1368 133.033 25.2046C133.1 25.2724 133.153 25.3535 133.19 25.4432C133.227 25.533 133.247 25.6296 133.249 25.7275C133.251 25.7602 133.251 25.793 133.249 25.8257V33.2066C133.215 33.7444 133.057 34.0585 132.512 34.0585H132.506Z" fill="white"/>
<path d="M39.1793 18.7275C36.7885 17.8087 34.1721 17.8087 31.7812 18.7275L35.4987 28.2559L39.1793 18.7275Z" fill="#FFDC00"/>
<path d="M45.3114 24.7225C44.2378 22.2708 42.3885 20.3011 40.0886 19.1594L36.408 28.6603L45.3114 24.7225Z" fill="#009E38"/>
<path d="M30.8685 19.1594C28.5678 20.2987 26.7191 22.2693 25.6494 24.7225L34.5602 28.6485L30.8685 19.1594Z" fill="#142280"/>
<path d="M31.7812 40.5482C34.1708 41.4746 36.7898 41.4746 39.1793 40.5482L35.4987 31.0237L31.7812 40.5482Z" fill="#FFDC00"/>
<path d="M45.7087 25.7041L36.7832 29.63L45.7087 33.556C46.572 31.0197 46.572 28.2404 45.7087 25.7041Z" fill="#FFDC00"/>
<path d="M40.0884 40.1163C42.3878 38.9783 44.2354 37.009 45.3038 34.5571L36.3967 30.6311L40.0884 40.1163Z" fill="#142280"/>
<path d="M25.6494 34.5571C26.72 37.0107 28.5683 38.9822 30.8685 40.1242L34.5491 30.6194L25.6494 34.5571Z" fill="#009E38"/>
<path d="M25.2262 25.7041C24.3501 28.2515 24.3501 31.0479 25.2262 33.5953L34.2143 29.63L25.2262 25.7041Z" fill="#FFDC00"/>
<path d="M35.4987 44.5135C32.74 44.5174 30.0422 43.6484 27.7466 42.0166C25.4509 40.3848 23.6606 38.0633 22.602 35.346C21.5434 32.6286 21.2642 29.6374 21.7997 26.7508C22.3351 23.8641 23.6611 21.2117 25.6099 19.129C27.5589 17.0464 30.0431 15.627 32.7483 15.0506C35.4536 14.4741 38.2583 14.7664 40.8078 15.8905C43.3573 17.0147 45.5369 18.9201 47.071 21.3657C48.6051 23.8114 49.4247 26.6874 49.4262 29.6301C49.4175 33.5698 47.9481 37.3459 45.3388 40.1343C42.7295 42.9227 39.1922 44.4969 35.4987 44.5135ZM35.4987 16.4348C33.0446 16.4309 30.6445 17.2034 28.6021 18.6546C26.5596 20.1058 24.9664 22.1704 24.0241 24.5875C23.0818 27.0045 22.8326 29.6653 23.308 32.2334C23.7835 34.8015 24.9623 37.1616 26.6953 39.015C28.4283 40.8685 30.6377 42.1321 33.0439 42.6462C35.4503 43.1602 37.9455 42.9015 40.2139 41.9028C42.4824 40.9041 44.4223 39.2102 45.7882 37.0355C47.1542 34.8607 47.8848 32.3027 47.8877 29.685V29.6301C47.8818 26.1257 46.5752 22.7664 44.2534 20.287C41.9318 17.8076 38.784 16.4098 35.4987 16.3995V16.4348Z" fill="white"/>
<path d="M52.4038 29.63V29.5515C52.4163 29.0532 52.3954 28.5547 52.3413 28.0596C52.2787 27.5649 52.2309 27.0114 52.1499 26.4892C52.069 25.9671 51.9622 25.4567 51.8334 24.9542L53.3351 24.5262C53.1952 23.9727 53.0333 23.423 52.8493 22.8891C52.6652 22.3551 52.4443 21.8212 52.2051 21.3187C51.9658 20.8162 51.7303 20.2822 51.469 19.7915L50.1146 20.6002C49.8679 20.1409 49.5992 19.7012 49.3232 19.2693C48.7512 18.4132 48.1161 17.6072 47.424 16.8588C47.056 16.4897 46.7357 16.1324 46.364 15.7987L47.3577 14.5267C46.9419 14.1734 46.5222 13.8514 46.0732 13.4942C45.6417 13.1599 45.1946 12.8493 44.7335 12.5637C44.2693 12.2757 43.7914 12.0136 43.3017 11.7785L42.6502 13.2782C42.2012 13.0505 41.7448 12.8503 41.2811 12.6658C40.8173 12.4813 40.3388 12.3321 39.864 12.175L40.2615 10.5772C39.7462 10.428 39.2199 10.3023 38.6899 10.1846C38.1598 10.0668 37.6299 10.0511 37.0888 10L36.9526 11.649C36.4852 11.6136 36.0104 11.5704 35.5319 11.5704H35.4435C34.9654 11.5586 34.487 11.5822 34.0118 11.6411C33.537 11.7079 33.0291 11.7589 32.5395 11.8453C32.0501 11.9316 31.5716 12.0494 31.0931 12.1829C30.6146 12.3164 30.1435 12.4773 29.6871 12.654L29.1571 11.0836C28.6528 11.2764 28.1608 11.5046 27.6849 11.7667C27.2027 12.0337 26.7205 12.2732 26.253 12.5519L27.0297 13.9928C26.6064 14.2519 26.1868 14.5424 25.7819 14.8329C25.3771 15.1235 24.9943 15.4297 24.5968 15.7713C24.2113 16.1035 23.8428 16.4573 23.4927 16.8313C23.1246 17.2239 22.8301 17.6165 22.5173 18.0091C22.19 18.4002 21.8899 18.8161 21.6192 19.2536L20.3457 18.3114C20.0365 18.7825 19.7421 19.2615 19.4734 19.764C19.2047 20.2665 18.9581 20.7612 18.7373 21.2833C18.5164 21.8055 18.3029 22.3316 18.0968 22.8734L19.569 23.4426C19.3997 23.9334 19.2525 24.432 19.1274 24.9463C19.0022 25.4606 18.8734 25.9867 18.7888 26.4892L17.2798 26.1948C17.184 26.7719 17.1288 27.3412 17.0699 27.9183C17.0111 28.4954 17 29.0568 17 29.63H18.5532C18.5378 30.154 18.5537 30.6786 18.6011 31.2004C18.6673 31.7147 18.7041 32.2565 18.7888 32.7708C18.8734 33.2851 18.9802 33.7994 19.109 34.3098L17.622 34.7731C17.7619 35.3266 17.9238 35.8763 18.1042 36.4181C18.2886 36.9545 18.5024 37.4788 18.7446 37.9884C18.9949 38.5067 19.2194 39.0131 19.4807 39.5078L20.8205 38.6794C21.0707 39.1388 21.3357 39.5785 21.6192 40.0064C21.8988 40.4383 22.1985 40.855 22.5173 41.2549C22.8301 41.6475 23.1577 42.0401 23.511 42.4327C23.8644 42.8253 24.2214 43.1551 24.6152 43.4927L23.6215 44.7569C24.0325 45.132 24.4612 45.4845 24.9059 45.813C25.3439 46.1427 25.8003 46.449 26.2604 46.7356C26.7205 47.0222 27.2064 47.2852 27.6922 47.5208L28.3363 46.0132C28.778 46.2409 29.2344 46.4372 29.7055 46.6217C30.1767 46.8062 30.633 46.9593 31.1115 47.0928L30.7066 48.6907C31.2244 48.8399 31.7507 48.9708 32.2856 49.0833C32.8193 49.1854 33.3456 49.2521 33.883 49.3032L34.0192 47.6503C34.4939 47.7014 34.9761 47.7131 35.4583 47.721H35.5025C35.9832 47.7327 36.464 47.7091 36.9416 47.6503C37.4164 47.5836 37.9243 47.5443 38.4138 47.4462C38.9034 47.348 39.3855 47.242 39.8603 47.1125C40.3351 46.9829 40.8026 46.818 41.2663 46.6413L41.8 48.2117C42.3007 48.0127 42.7888 47.7792 43.2613 47.5129C43.7471 47.2459 44.2218 47.0065 44.6856 46.7277L43.9237 45.2829C44.3544 45.0199 44.7703 44.7294 45.1678 44.4389C45.5653 44.1483 45.9665 43.8146 46.3455 43.4731C46.7247 43.1315 47.0817 42.786 47.4277 42.413C47.7736 42.0401 48.1086 41.6514 48.4288 41.2352C48.7571 40.8413 49.0584 40.4227 49.3305 39.9829L50.6224 40.9526C50.9279 40.4893 51.2188 40.0025 51.4874 39.5C51.7561 38.9974 52.0063 38.4988 52.2236 37.9806C52.4407 37.4624 52.6578 36.9324 52.864 36.4102L51.3917 35.8409C51.561 35.3502 51.7082 34.8477 51.8334 34.3412C51.9585 33.8347 52.0652 33.3204 52.1536 32.8022L53.6848 33.0888C53.7731 32.5274 53.843 31.9581 53.8872 31.3849C53.9313 30.8117 53.9608 30.2464 53.9608 29.6653H52.4038V29.63ZM51.2444 34.1449L50.0667 33.8112C49.9526 34.2627 49.8164 34.7142 49.6692 35.1814C49.5209 35.624 49.3477 36.0567 49.1502 36.4769C48.9681 36.9093 48.754 37.3255 48.5098 37.7215L49.5698 38.4085C49.3305 38.8443 49.0729 39.2762 48.7969 39.6884C48.5208 40.1006 48.2411 40.5011 47.9319 40.8937C47.6228 41.2863 47.2878 41.6553 46.975 42.0087L46.1064 41.09C45.8008 41.4276 45.4659 41.7417 45.1383 42.044C44.8107 42.3463 44.4501 42.625 44.093 42.8999C43.7372 43.171 43.3687 43.4225 42.9888 43.6537L43.6293 44.7765C43.216 45.0359 42.7868 45.2654 42.3448 45.4635C41.8884 45.6598 41.4798 45.8561 41.0602 46.0446C40.6157 46.2262 40.1623 46.3822 39.702 46.5118L39.3892 45.2594C38.9659 45.3811 38.5353 45.4832 38.1046 45.5656C37.674 45.6481 37.2397 45.703 36.8202 45.7462C36.4005 45.7894 35.922 45.7462 35.4987 45.7462V47.0418V45.7266V47.0222C35.0246 47.034 34.55 47.0143 34.0781 46.9633C33.6106 46.9005 33.1285 46.8533 32.6647 46.763L32.8782 45.4871C32.4402 45.4046 32.0096 45.2986 31.5937 45.1809C31.1777 45.0631 30.7471 44.9414 30.3091 44.7647C29.8948 44.6088 29.4882 44.4306 29.0908 44.2308L28.5755 45.4086C28.1449 45.1887 27.729 44.9571 27.291 44.7215C26.8741 44.4822 26.4744 44.2106 26.0948 43.9088C25.7267 43.6183 25.3256 43.3042 24.9648 42.9823C24.6042 42.6604 24.2545 42.2992 23.9122 41.9537L24.7735 41.0389C24.4643 40.7013 24.1698 40.3519 23.8864 39.9946C23.603 39.6374 23.3528 39.2644 23.1025 38.8875C22.8522 38.5106 22.6167 38.1023 22.3958 37.7097C22.1749 37.3171 21.9725 36.8892 21.7885 36.4612L20.6843 37.0109C20.4855 36.5594 20.2978 36.0883 20.1358 35.6093C19.9739 35.1303 19.8341 34.6435 19.7052 34.1567C19.5765 33.6672 19.4733 33.1704 19.3961 32.6687L20.596 32.4449C20.5186 31.9895 20.4672 31.5263 20.4303 31.0748C20.3936 30.6233 20.3714 30.1482 20.3714 29.7046C20.3689 29.235 20.3922 28.7657 20.4414 28.2991C20.4929 27.8319 20.5371 27.3608 20.6143 26.9289L19.4145 26.7091C19.4954 26.2026 19.5986 25.7119 19.7236 25.225L20.8978 25.5588C21.0118 25.1073 21.1481 24.6558 21.2952 24.1886C21.4425 23.7214 21.6081 23.317 21.7959 22.893C21.9797 22.4674 22.1836 22.0521 22.4068 21.6485L21.3837 20.9339C21.6228 20.4981 21.8805 20.0702 22.1492 19.6541C22.4197 19.2371 22.7096 18.8348 23.0178 18.4488C23.327 18.0562 23.6619 17.6871 23.9748 17.3338L24.825 18.2446C25.1415 17.9188 25.4691 17.5968 25.8003 17.2945C26.1316 16.9922 26.4813 16.7135 26.842 16.4387C27.198 16.168 27.5666 15.9164 27.9462 15.6849L27.3352 14.5542C27.7501 14.2992 28.179 14.0711 28.6198 13.8711C29.0687 13.6708 29.4847 13.4785 29.9337 13.2861C30.3827 13.0937 30.8354 12.9642 31.2956 12.8346L31.6121 14.087C32.0347 13.962 32.4635 13.8624 32.8966 13.7886C33.3236 13.7062 33.7542 13.6434 34.1811 13.6041C34.608 13.5648 35.0534 13.5334 35.4987 13.5334V12.2379V13.5334V12.2379C35.9718 12.2261 36.4451 12.2458 36.9158 12.2968C37.387 12.3596 37.8617 12.4067 38.3218 12.497L38.1084 13.7769C38.5412 13.8534 38.97 13.9543 39.3928 14.0792C39.8235 14.2009 40.2394 14.3383 40.6774 14.4953C41.0915 14.6515 41.497 14.8324 41.892 15.0371L42.4147 13.8593C42.8453 14.0792 43.2612 14.3108 43.6992 14.5463C44.1167 14.7865 44.5177 15.0581 44.8991 15.359C45.2671 15.6495 45.661 15.9636 46.029 16.2856L45.2451 17.2788C45.58 17.5851 45.8855 17.9031 46.2131 18.2289C46.5282 18.5572 46.8268 18.9032 47.1074 19.2654C47.3925 19.6222 47.6604 19.9944 47.9098 20.3804C48.1602 20.773 48.3993 21.1656 48.6165 21.5582C48.8337 21.9508 49.0398 22.3787 49.2275 22.8027L50.3317 22.2531C50.5304 22.7124 50.6997 23.1796 50.8764 23.6232C51.0408 24.0967 51.1821 24.5789 51.2997 25.068C51.4212 25.5548 51.5242 26.0495 51.6088 26.556L50.4127 26.7758C50.4863 27.2352 50.5415 27.7063 50.582 28.146C50.6224 28.5857 50.6372 29.0686 50.6372 29.5162C50.6483 29.9841 50.6298 30.4524 50.582 30.9177C50.523 31.3771 50.4863 31.856 50.4127 32.2879L51.6162 32.5078C51.4617 33.1595 51.3549 33.6542 51.2482 34.137L51.2444 34.1449Z" fill="white"/>
</svg>
