<svg width="150" height="60" viewBox="0 0 150 60" fill="none" xmlns="http://www.w3.org/2000/svg">
<path d="M72.8398 29.5877V40.1245H69.4954V14.0883H78.3778C80.4996 14.0524 82.5853 14.8435 84.1317 16.3539C85.678 17.7564 86.5771 19.7702 86.5411 21.856C86.5771 23.9418 85.714 25.9916 84.1317 27.3941C82.5853 28.8685 80.6794 29.6237 78.3778 29.6237L72.8398 29.5877ZM72.8398 17.2889V26.3872H78.4498C79.7084 26.4231 80.8952 25.9197 81.7582 25.0566C83.5203 23.3664 83.5563 20.5254 81.8302 18.7993C81.7942 18.7633 81.7582 18.7274 81.7582 18.7274C80.8952 17.8283 79.7084 17.3249 78.4498 17.3608L72.8398 17.2889Z" fill="#5F6368"/>
<path d="M94.2363 21.7483C96.7176 21.7483 98.6595 22.3956 100.098 23.7262C101.536 25.0567 102.256 26.8548 102.256 29.1564V40.1246H99.0551V37.6433H98.9112C97.5087 39.6931 95.6747 40.7 93.3732 40.7C91.3953 40.7 89.777 40.1246 88.4465 38.9379C87.1518 37.859 86.4326 36.2408 86.4686 34.5865C86.4686 32.7525 87.1518 31.2781 88.5543 30.1992C89.9568 29.1204 91.7909 28.581 94.1284 28.545C96.1063 28.545 97.7605 28.9046 99.0191 29.6239V28.8687C99.0191 27.7179 98.5157 26.6391 97.6526 25.9198C96.7536 25.1287 95.6028 24.6971 94.4161 24.6971C92.5461 24.6971 91.0716 25.4883 89.9928 27.0706L87.044 25.2006C88.6622 22.8991 91.0357 21.7483 94.2363 21.7483ZM89.8849 34.6944C89.8849 35.5575 90.2805 36.3846 90.9997 36.8881C91.7549 37.4635 92.6539 37.7871 93.5889 37.7512C94.9914 37.7512 96.358 37.1758 97.3649 36.2048C98.4797 35.1619 99.0191 33.9392 99.0191 32.5367C97.9763 31.7096 96.5378 31.2781 94.6678 31.2781C93.3013 31.2781 92.1865 31.6017 91.2874 32.249C90.3524 32.8963 89.8849 33.7235 89.8849 34.6944Z" fill="#5F6368"/>
<path d="M120.56 22.3235L109.376 48H105.923L110.059 39.0096L102.759 22.3235H106.391L111.713 35.1258H111.785L116.928 22.3235H120.56Z" fill="#5F6368"/>
<path d="M59.3184 27.3224C59.3184 26.3154 59.2464 25.2725 59.0666 24.2656H44.9697V30.0195H53.0611C52.7374 31.8895 51.6586 33.5077 50.0763 34.5506V38.2906H54.8951C57.7001 35.7014 59.3184 31.8535 59.3184 27.3224Z" fill="#4285F4"/>
<path d="M44.9695 41.9225C48.9972 41.9225 52.4135 40.592 54.8948 38.3264L50.076 34.5864C48.7454 35.4854 47.0193 36.0249 44.9695 36.0249C41.0856 36.0249 37.7412 33.3997 36.5904 29.8395H31.5918V33.6874C34.1451 38.7579 39.3235 41.9225 44.9695 41.9225Z" fill="#34A853"/>
<path d="M36.5899 29.8396C35.9786 27.9696 35.9786 25.9557 36.5899 24.1217V20.2738H31.5913C29.4696 24.4813 29.4696 29.4799 31.5913 33.6874L36.5899 29.8396Z" fill="#FBBC04"/>
<path d="M44.9684 17.9363C47.0901 17.9003 49.1759 18.6915 50.7223 20.1659L55.0017 15.8865C52.3046 13.3332 48.7084 11.9307 45.0044 12.0026C39.3584 12.0026 34.18 15.2032 31.6267 20.2378L36.5894 24.1217C37.7402 20.5615 41.0846 17.9363 44.9684 17.9363Z" fill="#EA4335"/>
</svg>
