<svg width="150" height="60" viewBox="0 0 150 60" fill="none" xmlns="http://www.w3.org/2000/svg">
<path d="M56.0112 26.6328C56.0112 26.6328 55.9407 26.6704 55.8701 26.708L59.8916 17H42.9591V22.9828H43.2413H44.7581V27.3477H51.3549V22.9828H53.5067V33.6315H51.3549V29.6054H44.7581V29.643H44.7229V33.5939H42.9238V39.5391H49.9791C50.1202 39.7273 50.2613 39.9154 50.4376 40.1412C51.496 41.4958 52.5895 42.2107 53.683 42.587C54.2828 42.8128 54.953 42.9256 55.6938 42.9256C55.729 42.9256 55.7996 42.9256 55.8349 42.9256C55.9055 42.9256 55.976 42.9256 56.0466 42.9256C60.8441 42.9256 63.9837 39.351 63.9837 34.6851C63.9484 28.5518 58.9745 26.6328 56.0112 26.6328Z" fill="#FEC014"/>
<path d="M60.7031 19.9349L59.5037 23.1333L59.3625 23.5095V23.5472C61.0559 23.6977 66.8058 25.0523 67.1234 32.2769C67.2292 35.0613 66.5942 37.8458 65.1126 39.6143H80.6341V33.6315L74.0375 33.5938C73.3672 33.5562 72.6617 33.4809 72.062 33.2175C71.4623 32.9542 70.9332 32.5026 70.4745 32.0887C70.0513 31.5995 69.6632 30.9975 69.4163 30.3578C69.1694 29.7181 69.0989 28.9656 69.0635 28.213C69.0989 27.4981 69.1694 26.7455 69.4163 26.1435C69.628 25.5414 70.0865 25.0147 70.5099 24.5631C70.9684 24.1492 71.4976 23.7353 72.0268 23.4719C72.6265 23.2461 73.2615 23.0956 73.9669 23.058H80.5636L80.4931 22.9827L80.5636 23.058V17.0375H69.5221L68.1111 19.9349H60.7031Z" fill="#FEC014"/>
<path d="M71.2505 28.326C71.2505 30.5085 73.2965 31.2986 74.5664 31.2986H79.1171H79.0818H79.1171V29.643H74.3547H73.8962V27.423H80.5987V25.3158H74.5664C73.0143 25.3534 71.2505 25.9178 71.2505 28.326Z" fill="#FEC014"/>
<path d="M130.973 23.773H131.326V24.8266H131.467V23.773H131.82V23.6602H130.973V23.773Z" fill="#FEC014"/>
<path d="M132.984 23.6602H132.807L132.596 24.2246C132.561 24.3751 132.49 24.488 132.49 24.6385C132.455 24.5256 132.419 24.3751 132.384 24.2246L132.208 23.6602H132.032L131.961 24.8642H132.102L132.137 24.3375C132.137 24.1493 132.173 23.9612 132.173 23.8107C132.208 23.9612 132.243 24.1117 132.314 24.2622L132.49 24.8266H132.596L132.807 24.2622C132.879 24.1117 132.913 23.9612 132.949 23.8107C132.949 23.9612 132.949 24.1493 132.949 24.3375L132.984 24.8642H133.125L132.984 23.6602Z" fill="#FEC014"/>
<path d="M29.5894 23.5096H27.9314V27.9497V33.5563H29.5894V23.5096Z" fill="#FEC014"/>
<path d="M42.0771 33.5563V29.5301V27.9873H40.5249H35.9038V29.6053H40.4192V31.7877H36.0449C35.1277 31.7877 34.3869 31.4867 33.7872 30.8847C33.6108 30.6965 33.4344 30.5084 33.3286 30.2826C33.0464 29.7935 32.9053 29.2291 32.9053 28.5518C32.9053 27.5734 33.1875 26.7832 33.7872 26.1812C34.3869 25.5791 35.1277 25.2405 36.0449 25.2405H41.3363H41.4068V23.472H41.3011H36.0449C32.9758 23.472 31.9175 25.5415 31.6353 26.2564C31.5648 26.407 31.5295 26.5575 31.4589 26.708C31.3178 27.1971 31.2473 27.7616 31.2473 28.3636C31.2473 29.1162 31.3532 29.7935 31.6001 30.3955C31.8117 30.9976 32.1645 31.562 32.6231 32.0511C33.0816 32.5403 33.5755 32.9166 34.1752 33.1424C34.7397 33.3681 35.3747 33.5186 36.0801 33.5186H41.9359L42.0771 33.5563Z" fill="#FEC014"/>
<path d="M15.9375 23.5096V33.5563H17.3133H17.6307V29.3796H24.439V33.5563H25.7796H26.097V23.5096H25.7796H24.439V27.6487H17.6307V23.5096H15.9375Z" fill="#FEC014"/>
<path d="M106.527 23.4343C106.492 23.4343 106.492 23.4343 106.456 23.4343C105.997 23.472 105.645 24.1869 105.539 24.375C105.539 24.375 105.539 24.4127 105.503 24.4127L104.904 25.6544L102.329 30.9599L99.6834 25.5039L99.1537 24.4503V24.4127C99.0834 24.2998 98.9071 23.8859 98.625 23.6601L98.5893 23.6225C98.5893 23.6225 98.5546 23.6225 98.5546 23.5848C98.519 23.5472 98.4487 23.5472 98.4131 23.5096H98.3784H98.3428H98.3071H98.2725C98.2368 23.5096 98.2368 23.5096 98.2012 23.5096C98.1665 23.5096 98.1309 23.5096 98.0953 23.5096C97.8843 23.5472 97.7081 23.6225 97.5665 23.773C97.5309 23.8106 97.5309 23.8482 97.4962 23.8859C97.2843 24.1869 97.1784 24.5632 97.0725 24.9771C97.0378 25.09 95.0615 33.6315 95.0615 33.6315H96.9318L98.2725 26.6703L101.447 33.1047C101.447 33.1047 101.694 33.7444 102.329 33.782C102.329 33.782 102.329 33.782 102.364 33.782C102.364 33.782 102.364 33.782 102.399 33.782C103.07 33.782 103.352 33.0295 103.352 33.0295L106.492 26.6703L107.867 33.6315H109.702L107.62 24.4879C107.585 24.4126 107.408 23.4343 106.527 23.4343Z" fill="#FEC014"/>
<path d="M113.264 29.3795H118.662V27.6486H113.264V29.3795Z" fill="#FEC014"/>
<path d="M110.936 33.5939H119.085V31.863H112.594V25.391H119.085V23.6602H110.936V33.5939Z" fill="#FEC014"/>
<path d="M89.1005 24.5256C89.0299 24.4127 88.9594 24.2998 88.8888 24.1869C88.6772 23.8859 88.2892 23.5472 87.8658 23.5472C87.1603 23.5472 86.7017 24.2622 86.5959 24.4879L86.5606 24.5256L85.3259 26.7456L81.5161 33.5186H83.5621L87.8305 26.1436L89.4885 29.0033H86.9839L86.2431 30.2826L85.9961 30.7342H90.4763L92.0636 33.5186H94.1804L89.1005 24.5256Z" fill="#FEC014"/>
<path d="M130.832 30.4333C130.832 30.3957 130.832 30.358 130.832 30.3204C130.832 30.2828 130.832 30.2828 130.832 30.2452C130.726 28.3638 129.562 27.7241 128.645 27.4607C128.328 27.3854 127.974 27.3102 127.622 27.3102H123.177C122.859 27.3102 122.613 27.2349 122.365 27.0468C122.154 26.8587 122.048 26.6329 122.048 26.2942C122.048 25.9932 122.154 25.7298 122.365 25.5417C122.577 25.3535 122.859 25.2783 123.177 25.2783H130.303V23.585H123.141C122.331 23.585 121.66 23.8108 121.131 24.3C120.602 24.7891 120.284 25.3912 120.249 26.1437C120.249 26.1437 120.249 26.1437 120.249 26.1813C120.249 26.219 120.249 26.2566 120.249 26.2942V26.3319C120.249 27.1973 120.531 27.8746 121.131 28.3638C121.696 28.8529 122.365 29.0787 123.177 29.0787H127.728C127.798 29.0787 127.834 29.0787 127.904 29.0787C128.292 29.1163 129.385 29.3421 129.385 30.5086C129.385 30.8848 129.068 31.4116 128.539 31.6374C127.974 31.8632 127.128 31.7879 125.823 31.7879C125.752 31.7879 120.461 31.7879 120.461 31.7879V33.5188C122.577 33.5188 125.258 33.5188 125.329 33.5188C125.329 33.5188 126.599 33.5188 127.622 33.5188C127.692 33.5188 127.763 33.5188 127.798 33.5188C127.834 33.5188 127.834 33.5188 127.868 33.5188C127.904 33.5188 127.94 33.5188 127.974 33.5188H128.01C128.68 33.4812 129.139 33.293 129.491 33.1049C129.667 32.992 130.303 32.6157 130.656 31.7503C130.656 31.7127 130.691 31.675 130.691 31.6374C130.691 31.5998 130.691 31.5998 130.726 31.5621C130.726 31.5245 130.726 31.5245 130.761 31.4869C130.761 31.4493 130.761 31.4493 130.797 31.4116C130.797 31.374 130.797 31.374 130.832 31.3364C130.832 31.2987 130.832 31.2987 130.832 31.2611C130.832 31.2235 130.832 31.1859 130.867 31.1859V31.1482C130.867 31.1106 130.867 31.0354 130.902 30.9977C130.938 30.8472 130.938 30.6967 130.938 30.5086C130.832 30.4709 130.832 30.4333 130.832 30.4333Z" fill="#FEC014"/>
</svg>
