<svg width="28" height="28" viewBox="0 0 28 28" fill="none" xmlns="http://www.w3.org/2000/svg">
<path d="M28 14C28 21.732 21.732 28 14 28C6.26802 28 0 21.732 0 14C0 6.26802 6.26802 0 14 0C21.732 0 28 6.26802 28 14Z"/>
<path fill-rule="evenodd" clip-rule="evenodd" d="M14 25.8125C20.5239 25.8125 25.8125 20.5239 25.8125 14C25.8125 7.47614 20.5239 2.1875 14 2.1875C7.47614 2.1875 2.1875 7.47614 2.1875 14C2.1875 20.5239 7.47614 25.8125 14 25.8125ZM14 28C21.732 28 28 21.732 28 14C28 6.26802 21.732 0 14 0C6.26802 0 0 6.26802 0 14C0 21.732 6.26802 28 14 28Z" fill="#00CFA6"/>
<path fill-rule="evenodd" clip-rule="evenodd" d="M11.6636 27.8063C9.39532 27.4254 7.31214 26.4989 5.55347 25.1667V14.2502C5.55347 9.44761 9.33502 5.5542 13.9997 5.5542C18.6645 5.5542 22.446 9.44761 22.446 14.2502C22.446 19.0529 18.6645 22.9463 13.9997 22.9463C13.8187 22.9463 13.6389 22.9404 13.4607 22.9288V16.5912C13.6337 16.6333 13.8142 16.6555 13.9997 16.6555C15.29 16.6555 16.3359 15.5786 16.3359 14.2502C16.3359 12.9218 15.29 11.8449 13.9997 11.8449C12.7095 11.8449 11.6636 12.9218 11.6636 14.2502L11.6636 14.2655V22.6093L11.6636 22.6093V27.8063Z" fill="#FF2400"/>
</svg>
