<svg width="32" height="32" viewBox="0 0 32 32" fill="none" xmlns="http://www.w3.org/2000/svg">
<g clip-path="url(#clip0_13165_166171)">
<path fill-rule="evenodd" clip-rule="evenodd" d="M26.1673 22.294C31.7775 18.9352 33.6736 11.6835 30.3923 6.00004C27.0786 0.260579 19.7395 -1.70597 14 1.60773C12.1661 2.66652 10.7175 4.13626 9.70315 5.83347C10.8573 5.50765 12.0749 5.33332 13.3333 5.33332C14.3582 5.33332 15.3561 5.44896 16.3147 5.6679L16.339 5.65376C19.8021 3.65437 24.2643 4.87265 26.2827 8.36859C27.6301 10.7023 27.5538 13.4718 26.324 15.65C26.5482 16.6194 26.6667 17.6292 26.6667 18.6667C26.6667 19.924 26.4926 21.1407 26.1673 22.294ZM13.9652 5.11478L12.7364 3.71273C13.2692 3.24677 13.8549 2.82555 14.4911 2.45826C15.1288 2.09006 15.7881 1.7929 16.4597 1.56422L17.0592 3.32847C16.5013 3.51672 15.951 3.76051 15.4222 4.06578C14.8935 4.37106 14.4057 4.72313 13.9652 5.11478ZM28.9653 18.4091C29.8171 17.216 30.4165 15.8705 30.7399 14.4596L28.868 14.0314C28.6132 15.204 28.124 16.3213 27.4286 17.3112L28.9653 18.4091ZM25.5731 2.49334C26.8174 3.22125 27.932 4.20156 28.8322 5.4114L27.2688 6.5766C26.5295 5.58012 25.6173 4.76798 24.596 4.15964L25.5731 2.49334Z" fill="#80858F"/>
<path d="M13.2938 14.7373L9.95639 17.9836C9.2501 18.6705 9.22939 19.8171 9.90983 20.5301C10.5903 21.2431 11.726 21.264 12.4323 20.5771L12.9808 20.0443C12.9911 20.1305 12.9963 20.2167 12.9963 20.3029C12.9963 21.1934 12.4375 21.9926 11.6044 22.2904C11.5992 22.2929 11.5941 22.2956 11.5941 22.2956C11.5216 22.3269 11.4854 22.4079 11.5113 22.4836C11.5398 22.562 11.6251 22.6038 11.7027 22.575C12.7247 22.2067 13.863 22.2067 14.8875 22.575C14.9652 22.6038 15.0505 22.562 15.079 22.4836C15.1049 22.4105 15.0686 22.3296 15.0014 22.2982C15.0014 22.2982 14.9962 22.2929 14.9884 22.2904C14.1554 21.9926 13.5965 21.1934 13.5965 20.3029C13.5965 20.2638 13.5976 20.2247 13.5997 20.1856C13.6023 20.1385 13.6064 20.0914 13.6121 20.0443L14.158 20.5771C14.8643 21.264 16 21.2431 16.6805 20.5301C17.3609 19.8171 17.3402 18.6705 16.6339 17.9836L13.2938 14.7373Z" fill="#80858F"/>
<path fill-rule="evenodd" clip-rule="evenodd" d="M25.3333 18.6667C25.3333 25.2941 19.9607 30.6667 13.3333 30.6667C6.7059 30.6667 1.33331 25.2941 1.33331 18.6667C1.33331 12.0393 6.7059 6.66667 13.3333 6.66667C19.9607 6.66667 25.3333 12.0393 25.3333 18.6667ZM8.77304 28.6995L9.55478 26.9806C8.45762 26.4709 7.47831 25.7479 6.66828 24.8599L5.26173 26.1663C6.24716 27.2264 7.43887 28.0921 8.77304 28.6995ZM2.39019 17.3762L4.33187 17.6042C4.47394 16.3686 4.85781 15.2091 5.43811 14.1747L3.75484 13.2179C3.04053 14.4709 2.56501 15.8777 2.39019 17.3762ZM11.1865 7.85784L11.5496 9.68645C12.1269 9.56752 12.7254 9.5065 13.336 9.5065C13.9465 9.5065 14.545 9.57052 15.1223 9.68645L15.4852 7.8588C14.7892 7.72105 14.0697 7.64876 13.3333 7.64876C12.5987 7.64876 11.8809 7.72069 11.1865 7.85784ZM21.4045 26.1667C20.419 27.2268 19.2272 28.0924 17.893 28.6997L17.1111 26.9806C18.2083 26.4709 19.1906 25.7479 19.9976 24.8599L21.4045 26.1667ZM24.2765 17.3768C24.1019 15.879 23.6268 14.4727 22.9131 13.2202L21.2338 14.1747C21.8141 15.2122 22.198 16.3716 22.34 17.6042L24.2765 17.3768ZM6.08192 18.6631C6.08192 22.6997 9.33716 25.9859 13.336 25.9859C17.3347 25.9859 20.59 22.6997 20.59 18.6631C20.59 14.6263 17.3347 11.3401 13.336 11.3401C9.33716 11.3401 6.08192 14.6263 6.08192 18.6631Z" fill="#80858F"/>
</g>
<defs>
<clipPath id="clip0_13165_166171">
<rect width="32" height="32" fill="white"/>
</clipPath>
</defs>
</svg>
