<svg width="32" height="32" viewBox="0 0 32 32" fill="none" xmlns="http://www.w3.org/2000/svg">
<path fill-rule="evenodd" clip-rule="evenodd" d="M25.87 3.05705L26.7754 8.52012L31.985 11.0535L29.3579 16.0071L31.9998 20.9606L26.7457 23.494L25.8403 28.9571L20.0666 28.0938L15.9553 32L11.8292 28.0372L6.10003 28.9429L5.17981 23.4374L-0.000152588 20.9182L2.64178 15.9646L0.0146897 11.0535L5.22434 8.49182L6.12972 3.07121L11.8737 3.977L15.9998 0L20.1112 3.92039L25.87 3.05705ZM10.1886 9.85999L8.58664 23H11.6646L12.3486 14.108H12.3846L14.4546 21.56H17.5506L19.6206 14.108H19.6566L20.3406 23H23.4186L21.8166 9.85999H18.1266L16.0206 18.32H15.9846L13.8786 9.85999H10.1886Z" fill="#80858F"/>
</svg>
