<svg width="150" height="60" viewBox="0 0 150 60" fill="none" xmlns="http://www.w3.org/2000/svg">
<path d="M31.9687 15C24.1875 15 17.8125 21.6 17.8125 29.9C17.8125 31.4 18 32.8 18.4688 34.2C18.75 33.8 19.0312 33.4 19.2188 33C20.25 31.5 21.1875 29.9 22.125 28.4L22.7812 27.2C22.9687 26.8 23.25 26.4 23.4375 26C23.9062 25.2 24.375 24.4 24.75 23.6C24.9375 23.2 25.125 22.8 25.4063 22.4C25.6875 22 25.7812 21.6 26.0625 21.2C26.3437 20.8 26.4375 20.4 26.625 20L27.1875 18.9L27.2812 18.8C27.5625 18.1 28.3125 17.9 28.9688 18.2C29.4375 18.5 29.7188 19 29.7188 19.6C29.7188 20.3 29.625 21.1 29.5312 21.8C29.4375 22.5 29.4375 23.3 29.4375 24C29.3438 25.5 29.3437 26.9 29.3437 28.3C29.3437 29.7 29.4375 31.2 29.5312 32.5L29.8125 34.6C29.9062 35.2 30.0938 35.8 30.375 36.4C30.4688 36.6 30.5625 36.7 30.6563 36.9C30.75 37 30.6562 36.9 30.75 36.9H31.0312L31.125 36.8L31.6875 36.2C32.0625 35.7 32.5312 35.2 32.8125 34.6C33.1875 34 33.4687 33.4 33.8437 32.8C34.5 31.5 35.1562 30.2 35.7187 28.9C36 28.2 36.2812 27.6 36.5625 26.9C36.8438 26.2 37.125 25.5 37.4063 24.9C37.6875 24.2 38.4375 23.9 39.0938 24.2C39.4688 24.4 39.75 24.8 39.8438 25.2C39.8438 25.4 39.8437 25.6 39.9375 25.8L40.0312 26.4C40.125 26.8 40.125 27.2 40.2188 27.6C40.3125 28.4 40.5 29.3 40.6875 30.1C40.875 30.9 41.1562 31.7 41.4375 32.5C41.7188 33.3 42.0938 34 42.6562 34.7C42.75 34.9 42.75 35.1 42.5625 35.2C42.4688 35.3 42.2812 35.3 42.1875 35.2C41.5312 34.6 40.9688 33.9 40.5 33.2C40.0312 32.5 39.5625 31.7 39.1875 30.9C38.9062 30.3 38.7187 29.8 38.5312 29.2C38.3437 29.5 38.25 29.9 38.0625 30.2C37.4062 31.6 36.8438 32.9 36.0938 34.2C35.7188 34.9 35.3438 35.6 34.9688 36.2C34.5938 36.9 34.125 37.6 33.5625 38.2C33.2812 38.6 32.9062 38.9 32.625 39.2C32.5312 39.3 32.4375 39.4 32.25 39.4L32.0625 39.5L31.9687 39.6H31.6875C31.5937 39.6 31.5937 39.7 31.5 39.7C31.3125 39.7 31.2187 39.8 31.0312 39.8C30.6562 39.8 30.375 39.8 30 39.7C29.625 39.6 29.4375 39.4 29.1562 39.2C28.7812 38.8 28.4062 38.4 28.2188 37.9C27.8438 37.1 27.5625 36.3 27.4687 35.4C27.2812 34.6 27.1875 33.8 27.0938 33.1C26.9062 31.6 26.9063 30 26.9063 28.6V26.4C26.625 26.9 26.3438 27.4 26.1562 27.9C25.9688 28.3 25.7813 28.7 25.5 29.1L24.8438 30.3C24 32 23.0625 33.6 22.125 35.1C21.5625 36.1 20.9063 37.2 20.25 38.2C24.5625 45 33.2812 47 39.8438 42.4C46.4062 38 48.1875 28.7 43.875 21.9C41.1562 17.6 36.75 15 31.9687 15Z" fill="url(#paint0_linear_515_54253)"/>
<path d="M58.3125 35.2V25.3H58.125L55.1249 35.2H54.375L51.3749 25.3H51.0937V35.2H49.875V24.4H52.1249L54.75 33.1L57.375 24.4H59.6249V35.4L58.3125 35.2Z" fill="url(#paint1_linear_515_54253)"/>
<path d="M61.4062 25.8V24.4H62.7188V25.8H61.4062ZM61.4062 35.2V26.8H62.7188V35.2H61.4062Z" fill="url(#paint2_linear_515_54253)"/>
<path d="M70.7812 32.5C70.7812 34.2 70.2187 35.4001 67.5937 35.4001C64.3125 35.4001 64.125 33.4001 64.125 31.1C64.125 28.8001 64.3125 26.8 67.5937 26.8C70.2187 26.8 70.7812 28.1001 70.7812 29.7001H69.5625C69.5625 28.3001 69.0937 27.7001 67.5937 27.7001C65.5312 27.7001 65.4375 28.9001 65.4375 31.2001C65.4375 33.5001 65.5312 34.7001 67.5937 34.7001C69.0937 34.7001 69.5625 34.0001 69.5625 32.7001H70.7812V32.5Z" fill="url(#paint3_linear_515_54253)"/>
<path d="M73.3125 27.7C73.9687 27.3 74.7188 26.7 75.4688 26.7H76.5938L76.5 27.7H75.4688C74.8125 27.7 74.0625 28.3 73.5 28.6V35.2H72.1875V26.7999H73.2187L73.3125 27.7Z" fill="url(#paint4_linear_515_54253)"/>
<path d="M83.9062 31C83.9062 33.4 83.7188 35.2999 80.4375 35.2999C77.1563 35.2999 76.9688 33.3 76.9688 31C76.9688 28.7 77.1563 26.7 80.4375 26.7C83.7188 26.7 83.9062 28.6 83.9062 31ZM78.1875 31C78.1875 33.3 78.2812 34.5 80.3437 34.5C82.4062 34.5 82.5 33.4 82.5 31C82.5 28.6 82.4062 27.5 80.3437 27.5C78.375 27.6 78.1875 28.7 78.1875 31Z" fill="url(#paint5_linear_515_54253)"/>
<path d="M86.3437 37.2001C86.8125 37.3001 87.4687 37.3 88.2187 37.3C90.2812 37.3 90.4687 36.7 90.5625 34.5C90 34.9 89.1562 35.3 88.3125 35.3C85.4062 35.4 85.2188 33.7 85.2188 31.1C85.2188 28.5001 85.4062 26.8 88.2187 26.8C89.1562 26.8 90.0938 27.3001 90.75 27.7001L90.8438 26.9H91.875V34.4001C91.875 37.5001 91.2187 38.3 88.5937 38.3C87.8437 38.3 87 38.2 86.25 38.1L86.3437 37.2001ZM90.4687 28.3C89.9062 27.9 89.1563 27.5 88.5 27.5C86.5313 27.5 86.4375 28.7 86.4375 31C86.4375 33.3 86.5313 34.3 88.5 34.3C89.1563 34.3 89.9062 33.9 90.4687 33.6V28.3Z" fill="url(#paint6_linear_515_54253)"/>
<path d="M99 35.2L98.9063 34.4C98.25 34.8 97.4063 35.2999 96.4688 35.2999C93.5625 35.4 93.375 33.6 93.375 31C93.375 28.4 93.5625 26.7 96.4688 26.7C97.4063 26.7 98.25 27.2 98.9063 27.6L99 26.9H100.031V35.2999L99 35.2ZM98.7188 28.2999C98.1563 27.9999 97.4062 27.6 96.75 27.6C94.7812 27.6 94.6875 28.8 94.6875 31.1C94.6875 33.4 94.7812 34.5999 96.75 34.5999C97.4062 34.5999 98.1563 34.1999 98.7188 33.7999V28.2999Z" fill="url(#paint7_linear_515_54253)"/>
<path d="M102.75 27.5C103.312 27.1 104.156 26.6 105 26.6C106.312 26.5 107.062 26.9 107.344 27.5C108 27.1 108.75 26.6 109.687 26.6C112.406 26.5 112.594 28 112.594 30.1V35.2H111.281V30.2C111.281 28.4 111.187 27.6 109.406 27.6C108.75 27.6 108.094 28 107.531 28.4C107.625 29 107.719 29.6 107.719 30.3V35.3H106.594V30.3C106.594 28.5 106.5 27.7 104.719 27.7C104.062 27.7 103.406 28.1 102.938 28.4V35.3H101.625V26.9H102.656L102.75 27.5Z" fill="url(#paint8_linear_515_54253)"/>
<path d="M114.375 25.8V24.4H115.688V25.8H114.375ZM114.375 35.2V26.8H115.688V35.2H114.375Z" fill="url(#paint9_linear_515_54253)"/>
<path d="M118.5 27.5001C119.156 27.1001 120 26.6001 120.938 26.6001C123.844 26.5001 124.031 28.0001 124.031 30.1001V35.2001H122.719V30.2001C122.719 28.4001 122.625 27.6001 120.656 27.6001C120 27.6001 119.25 28.0001 118.688 28.3001V35.2001H117.375V26.8001H118.406L118.5 27.5001Z" fill="url(#paint10_linear_515_54253)"/>
<path d="M126.656 37.2001C127.125 37.3001 127.781 37.3 128.531 37.3C130.594 37.3 130.781 36.7 130.875 34.5C130.313 34.9 129.469 35.3 128.625 35.3C125.719 35.4 125.531 33.7 125.531 31.1C125.531 28.5001 125.719 26.8 128.531 26.8C129.469 26.8 130.406 27.3001 131.063 27.7001L131.156 26.9H132.188V34.4001C132.188 37.5001 131.531 38.3 128.906 38.3C128.156 38.3 127.313 38.2 126.563 38.1L126.656 37.2001ZM130.781 28.3C130.219 27.9 129.469 27.5 128.813 27.5C126.844 27.5 126.75 28.7 126.75 31C126.75 33.3 126.844 34.3 128.813 34.3C129.469 34.3 130.219 33.9 130.781 33.6V28.3Z" fill="url(#paint11_linear_515_54253)"/>
<defs>
<linearGradient id="paint0_linear_515_54253" x1="15.6531" y1="34.1443" x2="130.348" y2="8.2405" gradientUnits="userSpaceOnUse">
<stop stop-color="#21E418"/>
<stop offset="0.3" stop-color="#31B6E9"/>
<stop offset="0.976" stop-color="#21E418"/>
</linearGradient>
<linearGradient id="paint1_linear_515_54253" x1="16.9968" y1="39.6015" x2="131.423" y2="13.7579" gradientUnits="userSpaceOnUse">
<stop stop-color="#21E418"/>
<stop offset="0.3" stop-color="#31B6E9"/>
<stop offset="0.976" stop-color="#21E418"/>
</linearGradient>
<linearGradient id="paint2_linear_515_54253" x1="17.7068" y1="41.1981" x2="131.342" y2="15.533" gradientUnits="userSpaceOnUse">
<stop stop-color="#21E418"/>
<stop offset="0.3" stop-color="#31B6E9"/>
<stop offset="0.976" stop-color="#21E418"/>
</linearGradient>
<linearGradient id="paint3_linear_515_54253" x1="17.9511" y1="43.8594" x2="132.485" y2="17.9919" gradientUnits="userSpaceOnUse">
<stop stop-color="#21E418"/>
<stop offset="0.3" stop-color="#31B6E9"/>
<stop offset="0.976" stop-color="#21E418"/>
</linearGradient>
<linearGradient id="paint4_linear_515_54253" x1="18.3723" y1="44.9976" x2="132.619" y2="19.1946" gradientUnits="userSpaceOnUse">
<stop stop-color="#21E418"/>
<stop offset="0.3" stop-color="#31B6E9"/>
<stop offset="0.976" stop-color="#21E418"/>
</linearGradient>
<linearGradient id="paint5_linear_515_54253" x1="18.6507" y1="46.881" x2="133.205" y2="21.0081" gradientUnits="userSpaceOnUse">
<stop stop-color="#21E418"/>
<stop offset="0.3" stop-color="#31B6E9"/>
<stop offset="0.976" stop-color="#21E418"/>
</linearGradient>
<linearGradient id="paint6_linear_515_54253" x1="19.6428" y1="50.2569" x2="133.875" y2="24.4573" gradientUnits="userSpaceOnUse">
<stop stop-color="#21E418"/>
<stop offset="0.3" stop-color="#31B6E9"/>
<stop offset="0.976" stop-color="#21E418"/>
</linearGradient>
<linearGradient id="paint7_linear_515_54253" x1="19.7052" y1="51.0937" x2="134.158" y2="25.244" gradientUnits="userSpaceOnUse">
<stop stop-color="#21E418"/>
<stop offset="0.3" stop-color="#31B6E9"/>
<stop offset="0.976" stop-color="#21E418"/>
</linearGradient>
<linearGradient id="paint8_linear_515_54253" x1="20.1739" y1="53.3901" x2="134.733" y2="27.5163" gradientUnits="userSpaceOnUse">
<stop stop-color="#21E418"/>
<stop offset="0.3" stop-color="#31B6E9"/>
<stop offset="0.976" stop-color="#21E418"/>
</linearGradient>
<linearGradient id="paint9_linear_515_54253" x1="21.1141" y1="53.933" x2="134.748" y2="28.2693" gradientUnits="userSpaceOnUse">
<stop stop-color="#21E418"/>
<stop offset="0.3" stop-color="#31B6E9"/>
<stop offset="0.976" stop-color="#21E418"/>
</linearGradient>
<linearGradient id="paint10_linear_515_54253" x1="21.0337" y1="56.6128" x2="135.477" y2="30.7645" gradientUnits="userSpaceOnUse">
<stop stop-color="#21E418"/>
<stop offset="0.3" stop-color="#31B6E9"/>
<stop offset="0.976" stop-color="#21E418"/>
</linearGradient>
<linearGradient id="paint11_linear_515_54253" x1="22.0371" y1="60.0014" x2="136.27" y2="34.201" gradientUnits="userSpaceOnUse">
<stop stop-color="#21E418"/>
<stop offset="0.3" stop-color="#31B6E9"/>
<stop offset="0.976" stop-color="#21E418"/>
</linearGradient>
</defs>
</svg>
