<svg width="32" height="32" viewBox="0 0 32 32" fill="none" xmlns="http://www.w3.org/2000/svg">
<g clip-path="url(#clip0_13165_166126)">
<path d="M4.00229 24.448C4.88343 25.6823 6.34629 26.4949 8 26.4949C9.65486 26.4949 11.1189 25.6823 11.9989 24.448C12.8834 25.6823 14.3463 26.4949 16 26.4949C17.6537 26.4949 19.1189 25.6823 20 24.448C20.6709 25.3863 21.6777 26.0778 22.8469 26.3566C22.848 26.3338 22.8571 26.3109 22.8571 26.2869C22.8571 21.7155 17.3691 17.144 11.4286 17.144C5.488 17.144 0 20.5726 0 26.2869C0 26.3578 0.0205714 26.424 0.0297143 26.4926C1.176 26.48 3.12571 25.6732 4.00229 24.448Z" fill="#80858F"/>
<path d="M28 27.0811C27.1189 28.3153 25.6537 29.1279 24 29.1279C22.3463 29.1279 20.8834 28.3153 20 27.0811C19.1189 28.3153 17.6537 29.1279 16 29.1279C14.3463 29.1279 12.8834 28.3153 11.9989 27.0811C11.1189 28.3153 9.65486 29.1279 8 29.1279C6.34629 29.1279 4.88343 28.3153 4.00229 27.0811C3.11886 28.3153 1.14286 29.1279 0 29.1279V32.0011C1.14286 32.0011 3.11886 31.1908 4.00229 29.9565C4.88343 31.1908 6.34629 32.0011 8 32.0011C9.65486 32.0011 11.1189 31.1908 11.9989 29.9565C12.8834 31.1908 14.3463 32.0011 16 32.0011C17.6537 32.0011 19.1189 31.1908 20 29.9565C20.8834 31.1908 22.3463 32.0011 24 32.0011C25.6537 32.0011 27.1189 31.1908 28 29.9565C28.8834 31.1908 30.8571 32.0011 32 32.0011V29.1279C30.8571 29.1279 28.8834 28.3153 28 27.0811Z" fill="#80858F"/>
<path d="M24.832 11.5326C23.1737 11.1189 22.8606 10.3749 22.8629 9.14979V9.14408H26.2914C27.4343 9.14408 29.72 8.00122 29.72 5.71551C29.72 3.42979 27.4343 2.28693 26.2914 2.28693C26.0983 2.28693 25.7943 2.28351 25.4149 2.28236C24.4914 0.907506 22.9234 0.0012207 21.1429 0.0012207C19.1166 0.0012207 17.3806 1.18408 16.5429 2.88693L13.7143 5.71551L15.4286 7.42979L13.7143 9.14408L15.744 11.1738L14.8572 13.8366L17.1543 14.6012L17.1943 17.1441L20.3337 17.0949L20.9223 18.9258L23.1977 18.1944C24.1692 18.4492 25.1429 19.3406 25.1429 20.5726V26.3589C26.3177 26.0812 27.328 25.3886 28 24.4481C28.8834 25.6824 30.8572 26.4949 32 26.4949V20.5726C32 16.3052 29.0526 12.5875 24.832 11.5326ZM21.7143 4.57265C21.0834 4.57265 20.5714 4.06065 20.5714 3.42979C20.5714 2.79893 21.0834 2.28693 21.7143 2.28693C22.3452 2.28693 22.8572 2.79893 22.8572 3.42979C22.8572 4.06065 22.3452 4.57265 21.7143 4.57265Z" fill="#80858F"/>
</g>
<defs>
<clipPath id="clip0_13165_166126">
<rect width="32" height="32" fill="white"/>
</clipPath>
</defs>
</svg>
