<svg width="150" height="60" viewBox="0 0 150 60" fill="none" xmlns="http://www.w3.org/2000/svg">
<path fill-rule="evenodd" clip-rule="evenodd" d="M130.766 30.9417L134.062 36.6412H130.311L127.184 31.3056H127.128V36.6412H123.717V22.7564H128.776C129.969 22.6957 131.107 23.0595 132.073 23.7871C132.926 24.5753 133.381 25.7879 133.323 27.0006C133.323 27.9101 133.096 28.8196 132.584 29.6078C132.187 30.3355 131.504 30.8205 130.766 30.9417ZM129.629 26.3943C129.515 26.1518 129.288 25.9698 129.117 25.8486C128.889 25.7274 128.605 25.6667 128.378 25.6061C128.094 25.5455 127.809 25.5455 127.525 25.5455H127.184V29.0015H127.525C127.809 29.0015 128.094 29.0015 128.378 28.9409C128.662 28.8803 128.889 28.8196 129.117 28.6984C129.344 28.577 129.515 28.3952 129.629 28.1526C129.913 27.6069 129.913 26.94 129.629 26.3943ZM114.224 22.817H121.67V25.9093H117.635V28.1526H121.67V31.3056H117.635V33.5489H121.67V36.7019H114.224V22.817ZM65.1687 25.8486H61.1328V28.092H65.1687V31.2449H61.1328V33.4883H65.1687V36.6412H57.7222V22.7564H65.1687V25.8486ZM52.5495 36.7019L49.4232 31.3661H49.3663V36.7019H45.9557V22.817H51.0147C52.2085 22.7564 53.3453 23.1202 54.3117 23.8477C55.1643 24.6359 55.6191 25.8486 55.5622 27.0613C55.5622 27.9707 55.3348 28.8803 54.8232 29.6685C54.3117 30.396 53.5727 30.8811 52.72 31.0024L56.3012 36.7019H52.5495ZM51.9243 26.3943C51.8106 26.1518 51.5832 25.9698 51.4126 25.8486C51.1852 25.7274 50.9011 25.6667 50.6737 25.6061C50.3895 25.5455 50.1052 25.5455 49.8211 25.5455H49.48V29.0015H49.8211C50.1052 29.0015 50.3895 29.0015 50.6737 28.9409C50.9579 28.8803 51.1852 28.8196 51.4126 28.6984C51.64 28.577 51.8106 28.3952 51.9243 28.1526C52.1516 27.6069 52.1516 26.94 51.9243 26.3943ZM74.0362 23.3021C74.7751 23.6658 75.4573 24.1509 76.0257 24.7573C76.5941 25.4242 77.0489 26.1518 77.333 27.0006C77.9583 28.7589 77.9583 30.6992 77.333 32.3969C77.0489 33.2458 76.5941 33.9733 76.0257 34.6403C75.4573 35.2467 74.7751 35.7923 74.0362 36.0955C73.2972 36.4593 72.5014 36.6412 71.7057 36.6412H67.2718V22.7564H71.7057C72.5014 22.7564 73.2972 22.9383 74.0362 23.3021ZM70.3983 25.8486V33.6096H71.0804C71.5351 33.6096 71.9898 33.5489 72.4446 33.367C73.2972 33.0639 73.9793 32.3362 74.3204 31.4268C74.491 30.8811 74.6046 30.2748 74.6046 29.7291C74.6615 28.6984 74.3204 27.6676 73.6383 26.8794C72.9562 26.1518 72.0467 25.7879 71.1372 25.8486H70.3983ZM91.9416 25.8486H89.1564V36.7019H85.7458V25.8486H82.9605V22.817H91.9416V25.8486ZM97.399 36.7019H93.9877V22.7564H97.399V36.7019ZM101.264 24.6966C101.832 24.0903 102.571 23.6052 103.367 23.2414C104.22 22.8776 105.129 22.7564 106.039 22.7564C107.176 22.6957 108.313 23.0595 109.336 23.6658C110.302 24.3328 111.041 25.2423 111.496 26.3943L108.54 27.7283C108.369 27.1219 107.971 26.5762 107.516 26.2124C107.062 25.8486 106.494 25.6667 105.925 25.6667C105.47 25.6667 105.016 25.7879 104.618 26.0305C104.22 26.273 103.879 26.5762 103.595 27.0006C103.31 27.425 103.14 27.8495 102.969 28.3346C102.685 29.3047 102.685 30.3355 102.969 31.3056C103.083 31.7906 103.31 32.215 103.595 32.6395C103.879 33.0032 104.22 33.367 104.618 33.5489C105.016 33.7915 105.527 33.9128 105.982 33.9128C106.607 33.9128 107.233 33.7308 107.744 33.3064C108.199 32.882 108.483 32.2757 108.54 31.6087H105.982V29.0015H112.235C112.235 29.9716 112.121 30.9417 111.95 31.8512C111.78 32.7001 111.439 33.4277 110.984 34.1552C110.416 35.0041 109.676 35.6711 108.824 36.0955C107.915 36.5199 106.949 36.7624 105.982 36.7019C105.072 36.7019 104.22 36.5199 103.367 36.2168C102.571 35.9137 101.889 35.4286 101.321 34.8222C100.752 34.2159 100.297 33.4883 100.014 32.6395C99.6721 31.73 99.559 30.8205 99.559 29.8504C99.559 28.8803 99.7295 27.9101 100.014 27.0006C100.241 26.0912 100.696 25.3636 101.264 24.6966Z" fill="#F6F6F6"/>
<path fill-rule="evenodd" clip-rule="evenodd" d="M31.9155 25.8486C31.9155 26.2123 31.9155 26.6368 31.4039 26.8187C31.0629 26.94 30.665 26.4549 30.665 26.1518C30.8355 25.9092 31.0629 25.7273 31.2903 25.6667C31.8018 25.4241 31.9155 25.3635 31.9155 25.8486ZM22.4227 26.8187C21.8543 26.6368 21.9112 26.2123 21.9112 25.8486C21.9112 25.3635 22.0248 25.4241 22.5364 25.6667C22.8206 25.7879 22.9912 25.9699 23.1617 26.1518C23.1617 26.4549 22.7638 26.94 22.4227 26.8187ZM34.9851 37.8538C35.3261 37.6719 35.6103 37.4294 35.8945 37.1868C37.2019 35.7317 37.4293 34.034 37.5998 32.0331C37.6566 31.5481 37.6566 31.0023 37.6566 30.4566C37.6566 30.396 37.6566 30.0322 37.7135 30.0322C37.8272 30.1535 37.884 30.2747 37.9409 30.4566C38.1114 30.9417 38.2251 31.3661 38.2251 31.8512C38.3957 32.8213 38.3957 33.7914 38.2819 34.7615C38.2251 35.1254 38.1114 35.4285 37.9978 35.7317C37.2019 37.1868 36.2924 38.5208 35.4398 39.9154C35.383 40.0366 35.3261 39.794 35.2692 39.794L35.2125 39.7334C35.0418 39.6122 34.9282 39.6122 34.8713 39.6728C34.8145 39.7334 34.8145 39.794 34.8145 39.8547C34.5871 40.3397 34.2461 41.0674 34.0187 41.5524C33.9618 41.613 33.9051 41.6737 33.7913 41.613C33.7345 41.613 33.7345 41.5524 33.7345 41.4918C33.7345 40.946 33.7345 40.4004 33.7345 39.8547C33.7345 39.4909 33.7345 39.1271 33.2798 39.1271C32.825 39.1271 32.825 39.5515 32.825 39.8547C32.825 40.1578 32.825 40.461 32.825 40.8248C32.825 40.8855 32.7682 41.0067 32.6545 41.0067C32.5977 41.0067 32.5977 41.0067 32.5977 41.0067C32.2565 40.7036 31.8587 40.461 31.4039 40.3397C30.7218 40.0366 29.926 40.1578 29.3576 40.5823L29.4712 40.5216C29.9829 40.0366 30.7218 39.794 31.4039 39.9759C31.5745 40.0366 31.8018 40.0366 31.9724 40.0366C32.0292 40.0366 32.1429 39.9759 32.086 39.8547V39.794C31.8018 39.0665 31.006 36.2774 32.7113 35.3678C32.7682 35.3678 32.7682 35.3073 32.7682 35.2466C32.825 34.7615 33.6777 32.5787 31.3471 31.1236C31.006 31.4874 30.5513 32.2756 29.926 32.8213C30.9492 33.0638 31.5176 32.3969 31.9724 31.9724C31.745 33.2457 30.8355 33.3064 30.0965 33.7914C30.7218 33.4883 31.3471 33.9127 32.1429 33.4883C31.5745 34.5796 30.4945 34.034 29.8692 34.6403C30.4945 35.0647 31.1197 34.8222 31.6881 34.7615C31.8587 34.7615 32.0292 34.7615 32.1998 34.7615C32.086 35.0041 31.9155 35.186 31.745 35.3678C31.5176 35.5497 31.2334 35.6711 31.006 35.7923C30.7218 35.9136 30.4376 35.9136 30.1534 35.7923C29.3007 35.4892 28.5049 35.186 27.6523 34.8222C27.4818 34.7615 27.3681 34.5796 27.3112 34.3977C27.2544 34.0946 27.3112 33.7914 27.3112 33.4883C27.2544 33.1245 27.4818 32.7606 27.8228 32.7001C28.6186 32.4575 29.2439 31.9724 29.7555 31.3055C29.926 31.063 30.0397 30.7598 30.0965 30.5173C30.0965 30.2747 30.0397 29.9715 29.9829 29.7291C29.926 29.5472 29.926 29.3046 29.9829 29.1228V29.0621L30.1534 28.2739C30.2102 28.0313 30.3239 27.8494 30.5513 27.6675L30.6081 27.6069L30.665 27.5463C31.006 27.3644 31.2903 27.2431 31.6313 27.1219C32.825 26.6368 33.7345 25.5454 34.1324 24.2721C34.3029 23.8477 34.3029 23.3627 34.2461 22.9382C34.1324 23.1808 33.9618 23.6658 33.8482 23.9083C33.7345 24.3328 33.3366 24.5753 32.9387 24.5147C31.8587 24.5147 30.7786 24.6966 30.2102 25.9092C29.9829 26.5762 29.4712 27.0612 28.9028 27.425C28.9028 27.0612 28.9597 26.6974 29.0733 26.3942C28.5618 26.1518 28.7892 25.8486 29.0165 25.5454C29.3576 25.121 29.7555 24.6966 30.1534 24.2721C29.8124 24.2115 29.5281 24.0296 29.3007 23.7264H31.4039V23.6658C30.7786 23.5446 30.1534 23.302 29.5281 22.9382C30.4945 22.2712 32.5977 22.635 32.9387 22.5138C32.9387 22.4531 32.6545 22.3319 32.3703 22.2712C31.6881 22.0893 31.4039 22.0287 30.7786 21.8468C30.0965 21.6649 29.4712 21.3618 28.846 20.998H31.6313C30.665 20.3917 29.6418 20.0278 28.5618 19.9066C27.9365 19.8459 27.4818 19.8459 27.1407 19.8459V19.664V19.8459C26.7428 19.8459 26.3449 19.8459 25.7196 19.9066C24.6396 20.0278 23.5596 20.3917 22.6501 20.998H25.4354C24.8101 21.3618 24.1849 21.6649 23.5027 21.8468C22.8206 22.0287 22.5933 22.0893 21.9112 22.2712C21.6269 22.3926 21.3427 22.4531 21.3427 22.5138C21.6838 22.635 23.7301 22.3319 24.7533 22.9382C24.1849 23.302 23.5596 23.5446 22.8775 23.6658V23.7264H24.9806C24.7533 23.969 24.4122 24.1509 24.128 24.2721C24.5259 24.6966 24.867 25.121 25.2649 25.5454C25.5491 25.8486 25.7196 26.1518 25.208 26.3942C25.3218 26.6974 25.3786 27.0612 25.3786 27.425C24.8101 27.1219 24.3554 26.5762 24.0712 25.9092C23.5027 24.6966 22.4227 24.5147 21.3427 24.5147C20.9448 24.5753 20.6038 24.3328 20.4333 23.9083C20.3195 23.6658 20.149 23.1808 20.0353 22.9382C19.9785 23.3627 19.9785 23.8477 20.149 24.2721C20.5469 25.606 21.4564 26.6368 22.6501 27.1219C22.9912 27.2431 23.3322 27.3644 23.6165 27.5463C23.6165 27.5463 23.6733 27.5463 23.6733 27.6069C23.6733 27.6069 23.7301 27.6069 23.7301 27.6675C23.9006 27.7888 24.0712 28.0313 24.128 28.2739L24.2986 29.0621V29.1228C24.3554 29.3046 24.3554 29.5472 24.2986 29.7291C24.1849 29.9715 24.1849 30.2747 24.1849 30.5173C24.2417 30.8204 24.3554 31.063 24.5259 31.3055C24.9806 31.9724 25.6628 32.5182 26.4586 32.7001C26.7997 32.7606 27.027 33.1245 26.9702 33.4883C26.9702 33.7914 27.027 34.0946 26.9702 34.3977C26.9133 34.5796 26.7997 34.7009 26.6292 34.8222C25.8333 35.186 24.9806 35.4892 24.128 35.7923C23.8438 35.8529 23.5596 35.8529 23.2753 35.7923C22.9912 35.7317 22.7638 35.5497 22.5364 35.3678C22.3659 35.186 22.1953 35.0041 22.0817 34.7615C22.2522 34.7009 22.4227 34.7009 22.5933 34.7615C23.1617 34.8222 23.787 35.0647 24.4122 34.6403C23.7301 34.034 22.6501 34.5796 22.1386 33.4883C22.8775 33.9127 23.5596 33.4883 24.1849 33.7914C23.4459 33.3064 22.5364 33.2457 22.3091 31.9724C22.8206 32.3969 23.3322 33.0638 24.3554 32.8213C23.787 32.2756 23.3322 31.4874 22.9343 31.1236C20.6038 32.5787 21.4564 34.7615 21.5133 35.2466C21.5133 35.3073 21.5701 35.3678 21.5701 35.3678C23.2753 36.2774 22.4227 39.0665 22.1953 39.794C22.1953 39.8547 22.1953 39.9154 22.1953 39.9154C22.1953 39.9759 22.2522 39.9759 22.3091 39.9759C22.4796 39.9759 22.707 39.9759 22.8775 39.9154C23.5596 39.7334 24.2986 39.9759 24.8101 40.461L24.9239 40.5216C24.2986 40.0973 23.5596 39.9759 22.8775 40.2791C22.4796 40.461 22.0817 40.7036 21.6838 40.946C21.6269 41.0067 21.5133 40.946 21.4564 40.8855V40.8248C21.4564 40.461 21.4564 40.1578 21.4564 39.8547C21.4564 39.4909 21.4564 39.1271 21.0017 39.1271C20.5469 39.1271 20.5469 39.5515 20.5469 39.8547C20.5469 40.4004 20.5469 40.946 20.5469 41.4918C20.5469 41.5524 20.49 41.6737 20.3764 41.6737C20.3195 41.6737 20.2627 41.6737 20.2627 41.613C20.0353 41.1279 19.6374 40.4004 19.4669 39.9154C19.4669 39.8547 19.41 39.794 19.41 39.7334C19.2964 39.6728 19.2395 39.6728 19.069 39.794L19.0121 39.8547C18.9553 39.9154 18.8985 40.0973 18.8416 39.9759C17.989 38.5814 17.0795 37.2475 16.2837 35.7923C16.1132 35.4892 15.9994 35.186 15.9994 34.8222C15.8858 33.8521 15.9426 32.882 16.0563 31.9118C16.1132 31.4267 16.17 30.9417 16.3406 30.5173C16.3973 30.396 16.4542 30.2141 16.5679 30.0929C16.6247 30.0929 16.6247 30.4566 16.6247 30.5173C16.6247 31.063 16.6247 31.5481 16.6816 32.0937C16.8521 34.034 17.0795 35.7317 18.3869 37.2475C18.6711 37.5506 18.9553 37.7932 19.2964 37.9145C19.3532 37.9751 19.4669 37.9145 19.4669 37.8538C19.4669 37.7932 19.4669 37.7932 19.4669 37.7326C19.069 36.8837 18.6711 36.0348 18.33 35.1254C17.989 34.2158 17.7616 33.2457 17.5342 32.3363C17.5342 32.2756 17.5342 32.1543 17.648 32.1543C17.7047 32.1543 17.7047 32.1543 17.7616 32.1543C17.9321 32.215 18.2164 32.3363 18.3869 32.3969C18.4437 32.4575 18.5574 32.3969 18.5574 32.2756C18.5574 32.215 18.5574 32.215 18.5574 32.1543C18.33 31.2449 17.5342 28.6376 17.5342 28.6376C17.5911 28.6983 18.0458 29.4259 18.1026 29.4865C18.5006 30.1535 18.7848 30.8204 19.069 31.4874C19.1826 31.8512 19.2964 32.0937 19.3532 32.2756C19.3532 32.3363 19.41 32.3969 19.3532 32.4575C18.6711 33.0638 19.2395 34.2158 19.5238 34.5796C19.9216 35.0647 20.2059 35.6711 20.3195 36.2774C20.3764 36.3986 20.4333 36.5805 20.49 36.7624C20.49 36.8231 20.6038 36.8837 20.6606 36.8837C20.7174 36.8837 20.7743 36.8231 20.7743 36.7624C20.7174 35.9742 20.6038 34.8828 20.3195 34.5796C19.9216 34.2158 20.0353 32.882 20.4333 32.6394C20.8312 32.3969 20.9448 32.1543 20.7174 31.7905C20.6606 31.73 20.7174 31.6086 20.7743 31.5481L22.6501 30.396C22.707 30.3354 22.7638 30.2747 22.7069 30.1535C22.7069 30.0929 22.6501 30.0929 22.5933 30.0929C21.9679 30.0322 21.2859 30.2141 20.8312 30.6385C20.4333 30.8811 19.9216 30.7598 19.6943 30.3354C19.6374 30.2747 19.6374 30.2141 19.6374 30.1535C19.5806 30.0322 19.5806 29.9715 19.5238 29.8503C19.5238 29.7896 19.5806 29.6684 19.6374 29.6684C20.5469 29.4259 20.6606 29.3652 20.7174 29.0621C20.7174 29.0014 20.6606 28.8802 20.6038 28.8802C20.2627 28.9409 19.9785 28.8802 19.6943 28.759C19.5238 28.577 19.41 28.3345 19.3532 28.0313C19.3532 27.9708 19.3532 27.8494 19.4669 27.8494C19.5238 27.8494 19.5238 27.8494 19.5806 27.8494C19.9216 27.9707 19.9785 27.9707 20.149 27.8494C20.2059 27.7888 20.2059 27.6675 20.149 27.6069C20.0921 27.5463 20.0922 27.4857 20.0353 27.4857C19.3532 26.94 18.33 23.8477 18.3869 22.9382C18.1026 23.1808 17.9321 23.4839 17.8185 23.8477C17.1363 23.5446 16.5679 23.4232 16.6816 22.3926L17.4774 22.8169C17.4774 22.8169 17.5342 22.5138 17.0795 22.15C16.17 21.3618 16.0563 20.2704 15.9994 19.1184C15.9426 18.5727 16.3406 18.0876 16.8521 18.0269C17.0795 18.0269 17.25 18.0876 17.4206 18.1482C19.1826 18.9971 21.5701 19.9066 23.5596 19.6035H23.6165C24.867 19.3609 26.1175 19.179 27.3681 19.179C28.6186 19.179 29.8692 19.3609 31.1197 19.6035H31.1765C33.1661 19.8459 35.5535 18.9971 37.3156 18.1482C37.7704 17.845 38.3388 18.0269 38.623 18.512C38.7367 18.6939 38.7935 18.9365 38.7367 19.1184C38.7367 20.2704 38.5662 21.3618 37.6566 22.15C37.2588 22.5138 37.2588 22.8169 37.2588 22.8169L38.0545 22.3926C38.1683 23.4232 37.5998 23.5446 36.9177 23.8477C36.804 23.4839 36.6335 23.1808 36.3492 22.9382C36.4061 23.8477 35.383 26.8793 34.7008 27.4857C34.644 27.5463 34.5871 27.6069 34.5871 27.6069C34.5871 27.6675 34.5303 27.6675 34.5303 27.7282C34.5303 27.7888 34.5303 27.7888 34.5871 27.8494C34.7577 27.9707 34.8713 27.9707 35.1556 27.8494C35.2125 27.7888 35.3261 27.8494 35.3261 27.9101C35.3261 27.9708 35.3261 27.9708 35.3261 28.0313C35.2692 28.2739 35.1556 28.5164 34.9851 28.759C34.7008 28.8802 34.3598 28.9409 34.0756 28.8802C34.0187 28.8802 33.9051 28.9409 33.9051 29.0621C33.9618 29.3652 34.0756 29.4259 34.9851 29.6684C35.0418 29.6684 35.1556 29.7896 35.0987 29.8503C35.0987 29.9715 35.0418 30.0322 34.9851 30.1535C34.8713 30.6385 34.4166 30.8811 33.9618 30.6992C33.9051 30.6992 33.8482 30.6385 33.7913 30.6385C33.2798 30.2141 32.6545 30.0322 32.0292 30.0929C31.9724 30.0929 31.9155 30.2141 31.9155 30.2747C31.9155 30.3354 31.9724 30.3354 31.9724 30.396L33.8482 31.5481C33.9051 31.6086 33.9618 31.6693 33.9051 31.7905C33.6777 32.1543 33.7913 32.3969 34.1892 32.6394C34.644 32.882 34.7008 34.2158 34.3029 34.5796C34.0756 34.8222 33.9051 35.9136 33.8482 36.7624C33.8482 36.8231 33.9051 36.9443 34.0187 36.9443C34.0756 36.9443 34.1324 36.8837 34.1324 36.8231C34.1892 36.6412 34.2461 36.4593 34.3029 36.338C34.4734 35.7317 34.7577 35.1254 35.0987 34.6403C35.383 34.2765 35.8945 33.1245 35.2692 32.5182C35.2125 32.4575 35.2125 32.3969 35.2692 32.3363C35.3261 32.215 35.4398 31.9118 35.5535 31.5481C35.8377 30.8204 36.1787 30.1535 36.5198 29.5472C36.5766 29.4865 37.0314 28.759 37.0883 28.6983C37.0883 28.6983 36.2924 31.3661 36.0651 32.215C36.0651 32.2756 36.0651 32.3969 36.1787 32.3969C36.2356 32.3969 36.2356 32.3969 36.2924 32.3969C36.463 32.3363 36.7471 32.215 36.9177 32.1543C36.9745 32.1543 37.0883 32.1544 37.0883 32.2756C37.0883 32.3363 37.0883 32.3363 37.0883 32.3969C36.8609 33.3064 36.6335 34.2765 36.2924 35.186C35.9514 36.0955 35.5535 36.9443 35.1556 37.7932C35.0987 37.8538 35.1556 37.9751 35.2125 37.9751C34.8713 37.9145 34.9282 37.9145 34.9851 37.8538ZM22.8206 30.8811L22.7638 30.9417C22.7638 30.9417 22.8206 30.9417 22.8206 30.8811ZM19.4669 19.3609C19.6374 19.4215 19.7511 19.4215 19.9216 19.4821C19.8079 19.4215 19.6374 19.3609 19.4669 19.3609ZM19.2964 19.6035C17.25 19.4215 17.648 21.0586 18.0458 22.0287L18.3869 22.635L18.4437 22.6957C18.9553 23.969 19.3532 26.6974 21.8543 27.7888C21.7406 27.7282 21.6838 27.6675 21.5701 27.6069C20.8879 26.94 20.2627 26.1518 19.8648 25.3029C18.7848 22.9382 19.069 21.483 18.8985 20.8767C19.1259 20.9373 19.8648 21.1192 20.0353 21.1799C20.0353 21.1192 18.7279 20.5129 18.33 20.331C18.5006 20.2097 18.6711 20.1491 18.8985 20.0885C19.7511 19.9672 20.0922 20.2704 20.6606 20.3917C21.0585 20.4522 21.3996 20.3917 21.7974 20.2704L19.2964 19.6035ZM31.006 30.8811C31.006 30.8811 31.0629 30.8811 31.0629 30.9417L31.006 30.8811ZM33.9051 19.4821C34.0187 19.4215 34.1892 19.4215 34.3598 19.3609C34.1892 19.3609 34.0756 19.4215 33.9051 19.4821ZM35.4398 22.635C35.4398 22.5744 35.4966 22.5744 35.4966 22.5138L35.8377 21.9075C36.2356 20.9373 36.6335 19.3609 34.5871 19.4821L32.1429 20.0885C32.4839 20.2097 32.8818 20.2097 33.2798 20.2097C33.8482 20.1491 34.1892 19.8459 35.0418 19.9066C35.2125 19.9066 35.4398 20.0278 35.6103 20.1491C35.2125 20.3917 33.9051 20.998 33.9051 20.998C34.0756 20.9373 34.8145 20.7555 35.0418 20.6948C34.9282 21.3011 35.2125 22.7563 34.0756 25.121C33.6777 26.0304 33.0524 26.8187 32.3703 27.425C32.2565 27.4857 32.1998 27.5463 32.086 27.6069C34.4734 26.6974 34.9282 23.969 35.4398 22.635ZM26.9133 31.063C26.6292 31.063 26.288 31.063 25.8901 31.063C25.4923 31.063 25.1512 31.0023 24.8101 30.8204C24.6396 30.6992 24.5259 30.4566 24.5827 30.1535C24.5827 29.8503 24.9806 29.6078 24.9806 29.6078C24.9806 30.396 25.6059 30.5779 26.9133 30.5779C28.2207 30.5779 28.846 30.3354 28.846 29.6078C28.846 29.6078 29.2439 29.8503 29.2439 30.1535C29.3007 30.396 29.1871 30.6385 29.0165 30.8204C28.6755 31.0023 28.2776 31.063 27.9365 31.063C27.5386 31.063 27.1975 31.063 26.9133 31.063ZM26.9133 39.309C26.9702 40.3397 25.3218 40.4004 23.9006 39.5515C23.8438 39.2484 23.9575 38.7027 23.787 38.5814C23.5596 38.3995 23.1617 38.642 22.9343 38.8239C22.707 39.0058 22.5364 39.309 22.3091 39.4909C22.4227 37.9145 23.9006 36.4593 26.1744 36.338C26.4018 36.338 26.6859 36.2774 26.9133 36.2774C27.1407 36.2774 27.4249 36.2774 27.6523 36.338C29.926 36.4593 31.4039 37.9145 31.5176 39.4909C31.2903 39.309 31.1197 39.0058 30.8924 38.8239C30.665 38.642 30.2671 38.3995 30.0397 38.5814C29.8692 38.7027 30.0397 39.2484 29.926 39.5515C28.5049 40.461 26.8565 40.3397 26.9133 39.309Z" fill="#D71920"/>
</svg>
