<svg width="32" height="32" viewBox="0 0 32 32" fill="none" xmlns="http://www.w3.org/2000/svg">
<path d="M16 1C7.7155 1 1 7.7155 1 16C1 24.2845 7.7155 31 16 31C24.2845 31 31 24.2845 31 16C31 7.7155 24.2884 1 16 1ZM28.2899 10.919C28.7294 11.9792 29.0339 13.1087 29.1881 14.2884L26.3238 14.6662C26.2043 13.7448 25.9653 12.8581 25.6222 12.0293L28.2899 10.919ZM24.0956 5.45644C25.0208 6.16962 25.8497 6.99846 26.559 7.92367L24.2652 9.68157C23.7101 8.95682 23.0625 8.30918 22.3377 7.75019L24.0956 5.45644ZM17.7309 2.81573C18.9106 2.96993 20.0401 3.27448 21.1002 3.71781L19.9938 6.38936C19.165 6.0424 18.2783 5.80339 17.357 5.68389L17.7309 2.81573ZM14.2691 2.81573L14.643 5.68003C13.7217 5.79954 12.835 6.04241 12.0062 6.38551L10.8998 3.71396C11.9599 3.27448 13.0933 2.96993 14.2691 2.81573ZM7.90825 5.45644L9.66616 7.75019C8.94141 8.30532 8.29376 8.95682 7.73863 9.68157L5.44488 7.92367C6.15421 6.99846 6.98304 6.16962 7.90825 5.45644ZM3.71396 10.919L6.3855 12.0254C6.04241 12.8543 5.8034 13.7409 5.68389 14.6623L2.81958 14.2845C2.96993 13.1087 3.27063 11.9792 3.71396 10.919ZM3.72168 21.1079C3.27835 20.0478 2.97379 18.9183 2.81958 17.7425L5.68389 17.3685C5.80726 18.2899 6.04627 19.1727 6.39322 20.0015L3.72168 21.1079ZM7.91982 26.5513C6.99461 25.8419 6.16963 25.017 5.45645 24.0918L7.7502 22.3338C8.30532 23.0547 8.95297 23.7024 9.67772 24.2575L7.91982 26.5513ZM14.2729 29.1843C13.0972 29.0301 11.9676 28.7255 10.9113 28.286L12.0177 25.6145C12.8466 25.9576 13.7294 26.1966 14.6507 26.3161L14.2729 29.1843ZM17.7271 29.1843L17.3531 26.32C18.2706 26.2005 19.1534 25.9615 19.9823 25.6184L21.0887 28.2899C20.0285 28.7255 18.9029 29.0301 17.7271 29.1843ZM16 24.0956C11.5359 24.0956 7.9044 20.4641 7.9044 16C7.9044 11.5359 11.5359 7.90439 16 7.90439C20.4641 7.90439 24.0956 11.5359 24.0956 16C24.0956 20.4641 20.4641 24.0956 16 24.0956ZM24.0802 26.5551L22.3223 24.2614C23.047 23.7062 23.6947 23.0586 24.2498 22.3377L26.5436 24.0956C25.8304 25.0208 25.0015 25.8458 24.0802 26.5551ZM28.2783 21.1079L25.6068 20.0015C25.9537 19.1727 26.1928 18.2899 26.3161 17.3685L29.1804 17.7463C29.0301 18.9221 28.7217 20.0478 28.2783 21.1079ZM21.3007 14.9514C21.1041 14.9514 20.9229 15.0054 20.761 15.1018C20.7456 15.1133 20.734 15.1172 20.7186 15.1288C20.3678 15.3601 19.9591 15.4834 19.5389 15.4834H17.8581C17.6731 14.8435 17.1719 14.3462 16.532 14.165V12.4765C16.532 12.0563 16.6554 11.6476 16.8867 11.2968C16.9985 11.1311 17.064 10.9306 17.064 10.7147C17.064 10.1326 16.5898 9.65073 16 9.65073C15.4102 9.65073 14.936 10.1288 14.936 10.7147C14.936 10.9113 14.99 11.0925 15.0864 11.2544C15.0979 11.2699 15.1056 11.2814 15.1133 11.2968C15.3446 11.6476 15.468 12.0563 15.468 12.4765V14.1727C14.8396 14.3577 14.35 14.8512 14.1689 15.4834H12.4611C12.0409 15.4834 11.6322 15.3601 11.2814 15.1288C11.1157 15.017 10.9152 14.9514 10.6993 14.9514C10.1133 14.9514 9.63532 15.4256 9.63532 16.0154C9.63532 16.6052 10.1133 17.0794 10.6993 17.0794C10.8959 17.0794 11.0771 17.0254 11.239 16.9291C11.2544 16.9175 11.266 16.9136 11.2814 16.9021C11.6322 16.6708 12.0409 16.5474 12.4611 16.5474H14.1689C14.35 17.1758 14.8396 17.6692 15.468 17.8581V19.5544C15.468 19.9746 15.3446 20.3832 15.1133 20.734C15.0015 20.8998 14.936 21.1002 14.936 21.3161C14.936 21.8982 15.4102 22.3801 16 22.3801C16.5898 22.3801 17.064 21.9021 17.064 21.32C17.064 21.1195 17.01 20.9422 16.9137 20.7803C16.9021 20.7648 16.8944 20.7533 16.8867 20.7379C16.6554 20.387 16.532 19.9784 16.532 19.5582V17.8697C17.1719 17.6885 17.6769 17.1912 17.8581 16.5513H19.5389C19.9591 16.5513 20.3678 16.6746 20.7186 16.9059C20.8844 17.0177 21.0848 17.0833 21.3007 17.0833C21.8867 17.0833 22.3647 16.6091 22.3647 16.0193C22.3608 15.4256 21.8828 14.9514 21.3007 14.9514Z" fill="#80858F"/>
</svg>
