<svg width="32" height="32" viewBox="0 0 32 32" fill="none" xmlns="http://www.w3.org/2000/svg">
<path d="M26.259 17.7989H25.4383V10.4124C25.4383 9.73531 24.8843 9.18132 24.2072 9.18132H21.0228L20.9818 8.79969L22.2498 7.40447C22.3975 7.24032 22.4468 7.01052 22.3811 6.80123C22.3114 6.59195 22.139 6.4319 21.9215 6.38676L20.0708 6.00513L19.1352 4.36369C19.0244 4.17082 18.8233 4.05181 18.6017 4.05181C18.3801 4.05181 18.1749 4.17082 18.0682 4.36369L17.4896 5.37317C17.4814 5.37317 17.4732 5.36497 17.465 5.36497L14.6745 4.78636L13.2629 2.31188C13.1521 2.11901 12.951 2 12.7294 2C12.5078 2 12.3026 2.11901 12.196 2.31188L10.7843 4.78636L7.99386 5.36497C7.96103 5.37318 7.9282 5.38548 7.89537 5.39779L7.30445 4.36369C7.19366 4.17082 6.99256 4.05181 6.77096 4.05181C6.54937 4.05181 6.34419 4.17082 6.2375 4.36369L5.30189 6.00513L3.45115 6.38676C3.23366 6.4319 3.05721 6.58785 2.99155 6.80123C2.92179 7.01052 2.97104 7.24032 3.12287 7.40447L4.39087 8.79969L4.34985 9.18132H1.23108C0.553988 9.18132 0 9.73531 0 10.4124V28.8787C0 29.5558 0.553988 30.1098 1.23108 30.1098H24.2113C24.8884 30.1098 25.4424 29.5558 25.4424 28.8787V25.1854H26.2631C26.4888 25.1854 26.6735 25.0008 26.6735 24.7751V18.2093C26.6694 17.9836 26.4847 17.7989 26.259 17.7989ZM16.9644 7.29366L17.6496 7.15003C17.822 7.1131 17.9738 7.00641 18.06 6.85047L18.5976 5.90664L19.1352 6.85047C19.2213 7.00231 19.3732 7.1131 19.5455 7.15003L20.6084 7.37163L19.8779 8.17593C19.7589 8.30725 19.7015 8.48371 19.722 8.65606L19.841 9.73531L18.8479 9.28802C18.7658 9.25109 18.6797 9.23467 18.5935 9.23467C18.5073 9.23467 18.4211 9.25109 18.3391 9.28802L17.346 9.73531L17.465 8.65606C17.4855 8.47961 17.428 8.30315 17.309 8.17593L16.7304 7.53988L16.9644 7.29366ZM11.3014 5.93536C11.4737 5.89843 11.6215 5.79174 11.7117 5.6399L12.7294 3.85894L13.7471 5.6399C13.8333 5.79174 13.9851 5.90254 14.1575 5.93536L16.1641 6.34983L14.7853 7.86816C14.6663 7.99948 14.6089 8.17594 14.6294 8.34829L14.8551 10.3837L12.9879 9.54244C12.9059 9.50551 12.8197 9.4891 12.7335 9.4891C12.6474 9.4891 12.5612 9.50551 12.4791 9.54244L10.612 10.3837L10.8377 8.34829C10.8582 8.17184 10.8007 7.99538 10.6817 7.86816L9.30291 6.35393L11.3014 5.93536ZM5.81484 7.15003C5.98719 7.1131 6.13902 7.00641 6.2252 6.85047L6.76277 5.90664L7.30035 6.85047C7.38652 7.00231 7.53835 7.1131 7.71071 7.15003L8.33444 7.28135L8.5027 7.31828L8.66275 7.49475L8.0431 8.18004C7.92409 8.31136 7.86664 8.48782 7.88716 8.66017L8.00616 9.73941L7.01309 9.29212C6.93102 9.25519 6.84484 9.23878 6.75867 9.23878C6.67249 9.23878 6.58632 9.25519 6.50424 9.29212L5.51115 9.73941L5.63017 8.66017C5.65069 8.48371 5.59324 8.30725 5.47423 8.18004L4.74378 7.37574L5.81484 7.15003ZM18.257 26.4165H7.17724V25.1854H18.257V26.4165ZM22.9762 21.0818C22.9762 21.3075 22.7915 21.4922 22.5658 21.4922H2.86845C2.64275 21.4922 2.45809 21.3075 2.45809 21.0818V12.0539C2.45809 11.8282 2.64275 11.6435 2.86845 11.6435H22.5658C22.7915 11.6435 22.9762 11.8282 22.9762 12.0539V21.0818ZM29.5378 3.15311C28.1795 3.15311 27.0757 4.25699 27.0757 5.61528C27.0757 6.52629 27.5722 7.31828 28.3067 7.74506V22.8505C29.6691 22.8505 30.7689 21.7466 30.7689 20.3883V7.74506C31.5035 7.31828 32 6.52629 32 5.61528C32 4.25699 30.9002 3.15311 29.5378 3.15311ZM16.5458 20.2611H21.7451V12.8746H16.5458V20.2611ZM17.8877 15.5173H20.5181L21.0475 16.3914L19.2008 17.9795L17.3542 16.3914L17.8877 15.5173ZM10.1154 20.2611H15.3147V12.8746H10.1154V20.2611ZM11.3999 15.5173H14.0303L14.5596 16.3914L12.713 17.9795L10.8664 16.3914L11.3999 15.5173ZM3.68917 20.2611H8.88844V12.8746H3.68917V20.2611ZM4.91204 15.5173H7.54244L8.07183 16.3914L6.2252 17.9795L4.37857 16.3914L4.91204 15.5173Z" fill="#80858F"/>
</svg>
